<svg xmlns="http://www.w3.org/2000/svg" version="1.1" xmlns:xlink="http://www.w3.org/1999/xlink" xmlns:svgjs="http://svgjs.dev/svgjs" width="1500" height="1500" viewBox="0 0 1500 1500"><rect width="1500" height="1500" fill="#ffffff"></rect><g transform="matrix(0.6666666666666666,0,0,0.6666666666666666,249.02157194277044,240.41295546558706)"><svg viewBox="0 0 242 247" data-background-color="#ffffff" preserveAspectRatio="xMidYMid meet" height="1530" width="1500" xmlns="http://www.w3.org/2000/svg" xmlns:xlink="http://www.w3.org/1999/xlink"><g id="tight-bounds" transform="matrix(1,0,0,1,0.2367795898495615,-0.09999999999999432)"><svg viewBox="0 0 241.5264408203009 247.2" height="247.2" width="241.5264408203009"><g><svg viewBox="0 0 395.5199999999999 404.81093361013893" height="247.2" width="241.5264408203009"><g transform="matrix(1,0,0,1,0,223.15203179785874)"><svg viewBox="0 0 395.5199999999999 181.65890181228022" height="181.65890181228022" width="395.5199999999999"><g id="textblocktransform"><svg viewBox="0 0 395.5199999999999 181.65890181228022" height="181.65890181228022" width="395.5199999999999" id="textblock"><g><svg viewBox="0 0 395.5199999999999 181.65890181228022" height="181.65890181228022" width="395.5199999999999"><g transform="matrix(1,0,0,1,0,0)"><svg width="395.5199999999999" viewBox="82.63 -37.45 184.85000000000002 80.5" height="181.65890181228022" data-palette-color="url(#ff2f2f7f-924a-452a-9bc3-f4846e0810c8)"><svg></svg><svg></svg><g class="wordmark-text-0" data-fill-palette-color="primary" id="text-0"></g></svg></g></svg></g></svg></g></svg></g><g transform="matrix(1,0,0,1,75.54432,0)"><svg viewBox="0 0 244.43135999999993 203.22476021514842" height="203.22476021514842" width="244.43135999999993"><g><svg xmlns="http://www.w3.org/2000/svg" xmlns:xlink="http://www.w3.org/1999/xlink" version="1.1" x="8" y="0" viewBox="0.4 0.2477790963781455 86.692 77.12584170829982" enable-background="new 0 0 87.142 77.878" xml:space="preserve" id="icon-0" width="228.43135999999993" height="203.22476021514842" class="icon-icon-0" data-fill-palette-color="accent"></svg></g></svg></g><g></g></svg></g><defs></defs><mask id="97a8c6c4-6c51-4bbe-92d6-ac39a9cc4532"><g id="SvgjsG2710"><svg viewBox="0 0 241.5264408203009 247.2" height="247.2" width="241.5264408203009"><g><svg viewBox="0 0 395.5199999999999 404.81093361013893" height="247.2" width="241.5264408203009"><g transform="matrix(1,0,0,1,0,223.15203179785874)"><svg viewBox="0 0 395.5199999999999 181.65890181228022" height="181.65890181228022" width="395.5199999999999"><g id="SvgjsG2709"><svg viewBox="0 0 395.5199999999999 181.65890181228022" height="181.65890181228022" width="395.5199999999999" id="SvgjsSvg2708"><g><svg viewBox="0 0 395.5199999999999 181.65890181228022" height="181.65890181228022" width="395.5199999999999"><g transform="matrix(1,0,0,1,0,0)"><svg width="395.5199999999999" viewBox="82.63 -37.45 184.85000000000002 80.5" height="181.65890181228022" data-palette-color="url(#ff2f2f7f-924a-452a-9bc3-f4846e0810c8)"><svg></svg><svg></svg><g class="wordmark-text-0" data-fill-palette-color="primary" id="SvgjsG2707"><path transform="translate(79.33,0)" d="M28.5-34.45l-3.4 24.6c-0.433 3.067-1.733 5.573-3.9 7.52-2.167 1.953-4.95 2.93-8.35 2.93v0c-3.067 0-5.423-0.843-7.07-2.53-1.653-1.68-2.48-3.853-2.48-6.52v0c0-0.767 0.033-1.35 0.1-1.75v0l3.45-24.25h4.5l-3.4 24.35c-0.067 0.4-0.1 0.95-0.1 1.65v0c0 3.467 1.767 5.2 5.3 5.2v0c2.167 0 3.883-0.633 5.15-1.9 1.267-1.267 2.05-3.017 2.35-5.25v0l3.35-24.05zM46.85-26.95c1.733 0 3.117 0.567 4.15 1.7 1.033 1.133 1.55 2.683 1.55 4.65v0c0 0.6-0.05 1.2-0.15 1.8v0l-2.65 18.8h-4.35l2.65-18.75c0.067-0.667 0.1-1.133 0.1-1.4v0c0-2.067-0.833-3.1-2.5-3.1v0c-2.333 0-4.8 2.4-7.4 7.2v0l-2.25 16.05h-4.35l3.7-26.35h3.75l-0.4 5c1.2-1.8 2.45-3.183 3.75-4.15 1.3-0.967 2.767-1.45 4.4-1.45zM67.35-37.45l-2.2 15.75c2.233-3.467 4.933-5.2 8.1-5.2v0c1.767 0 3.2 0.533 4.3 1.6 1.1 1.067 1.65 2.467 1.65 4.2v0c0 2.067-0.64 3.883-1.92 5.45-1.287 1.567-3.197 2.867-5.73 3.9v0l5.2 11.75h-4.75l-5.4-12.85c2.867-0.833 4.927-1.867 6.18-3.1 1.247-1.233 1.87-2.8 1.87-4.7v0c0-0.9-0.227-1.593-0.68-2.08-0.447-0.48-1.087-0.72-1.92-0.72v0c-1.3 0-2.64 0.657-4.02 1.97-1.387 1.32-2.63 3.23-3.73 5.73v0l-2.2 15.75h-4.35l5.2-36.95zM97.7-26.95c1.733 0 3.117 0.567 4.15 1.7 1.033 1.133 1.55 2.683 1.55 4.65v0c0 0.6-0.05 1.2-0.15 1.8v0l-2.65 18.8h-4.35l2.65-18.75c0.067-0.667 0.1-1.133 0.1-1.4v0c0-2.067-0.833-3.1-2.5-3.1v0c-2.333 0-4.8 2.4-7.4 7.2v0l-2.25 16.05h-4.35l3.7-26.35h3.75l-0.4 5c1.2-1.8 2.45-3.183 3.75-4.15 1.3-0.967 2.767-1.45 4.4-1.45zM117.55 0.6c-2.867 0-5.077-0.917-6.63-2.75-1.547-1.833-2.32-4.35-2.32-7.55v0c0-2.6 0.433-5.217 1.3-7.85 0.867-2.633 2.257-4.85 4.17-6.65 1.92-1.8 4.363-2.7 7.33-2.7v0c2.833 0 5.023 0.907 6.57 2.72 1.553 1.82 2.33 4.33 2.33 7.53v0c0 2.567-0.423 5.173-1.27 7.82-0.853 2.653-2.237 4.887-4.15 6.7-1.92 1.82-4.363 2.73-7.33 2.73zM117.7-2.95c1.967 0 3.55-0.767 4.75-2.3 1.2-1.533 2.057-3.383 2.57-5.55 0.52-2.167 0.78-4.267 0.78-6.3v0c0-4.167-1.533-6.25-4.6-6.25v0c-1.967 0-3.55 0.757-4.75 2.27-1.2 1.52-2.057 3.353-2.57 5.5-0.52 2.153-0.78 4.263-0.78 6.33v0c0 4.2 1.533 6.3 4.6 6.3zM161.65-26.35h4.2l-8.95 26.35h-5.75l-1-22.4-7.35 22.4h-5.6l-1.75-26.35h4.25l0.85 23.25 7.8-23.25h4.85l1.1 23.25zM182.45-26.95c1.733 0 3.117 0.567 4.15 1.7 1.033 1.133 1.55 2.683 1.55 4.65v0c0 0.6-0.05 1.2-0.15 1.8v0l-2.65 18.8h-4.35l2.65-18.75c0.067-0.667 0.1-1.133 0.1-1.4v0c0-2.067-0.833-3.1-2.5-3.1v0c-2.333 0-4.8 2.4-7.4 7.2v0l-2.25 16.05h-4.35l3.7-26.35h3.75l-0.4 5c1.2-1.8 2.45-3.183 3.75-4.15 1.3-0.967 2.767-1.45 4.4-1.45z" fill="white" fill-rule="nonzero" stroke="none" stroke-width="1" stroke-linecap="butt" stroke-linejoin="miter" stroke-miterlimit="10" stroke-dasharray="" stroke-dashoffset="0" font-family="none" font-weight="none" font-size="none" text-anchor="none" style="mix-blend-mode: normal" opacity="1"></path><path transform="translate(85.88,42.45)" d="M28.5-34.45l-3.4 24.6c-0.433 3.067-1.733 5.573-3.9 7.52-2.167 1.953-4.95 2.93-8.35 2.93v0c-3.067 0-5.423-0.843-7.07-2.53-1.653-1.68-2.48-3.853-2.48-6.52v0c0-0.767 0.033-1.35 0.1-1.75v0l3.45-24.25h4.5l-3.4 24.35c-0.067 0.4-0.1 0.95-0.1 1.65v0c0 3.467 1.767 5.2 5.3 5.2v0c2.167 0 3.883-0.633 5.15-1.9 1.267-1.267 2.05-3.017 2.35-5.25v0l3.35-24.05zM46.85-26.95c1.733 0 3.117 0.567 4.15 1.7 1.033 1.133 1.55 2.683 1.55 4.65v0c0 0.6-0.05 1.2-0.15 1.8v0l-2.65 18.8h-4.35l2.65-18.75c0.067-0.667 0.1-1.133 0.1-1.4v0c0-2.067-0.833-3.1-2.5-3.1v0c-2.333 0-4.8 2.4-7.4 7.2v0l-2.25 16.05h-4.35l3.7-26.35h3.75l-0.4 5c1.2-1.8 2.45-3.183 3.75-4.15 1.3-0.967 2.767-1.45 4.4-1.45zM61.45-26.35h4.35l-3.7 26.35h-4.35zM64.55-32.85c-0.833 0-1.5-0.25-2-0.75-0.5-0.5-0.75-1.15-0.75-1.95v0c0-0.967 0.317-1.76 0.95-2.38 0.633-0.613 1.4-0.92 2.3-0.92v0c0.833 0 1.5 0.25 2 0.75 0.5 0.5 0.75 1.15 0.75 1.95v0c0 0.967-0.317 1.76-0.95 2.38-0.633 0.613-1.4 0.92-2.3 0.92zM86.95-26.35h4.7l-11.65 26.35h-5.2l-4.35-26.35h4.7l2.8 22.4zM112.9-20.35c0 3.4-1.393 5.85-4.18 7.35-2.78 1.5-6.67 2.55-11.67 3.15v0 0.3c0 4.3 1.617 6.45 4.85 6.45v0c1.1 0 2.15-0.193 3.15-0.58 1-0.38 2.067-0.97 3.2-1.77v0l1.85 2.9c-2.767 2.1-5.65 3.15-8.65 3.15v0c-2.833 0-5.023-0.893-6.57-2.68-1.553-1.78-2.33-4.253-2.33-7.42v0c0-2.767 0.443-5.483 1.33-8.15 0.88-2.667 2.287-4.877 4.22-6.63 1.933-1.747 4.35-2.62 7.25-2.62v0c2.4 0 4.257 0.623 5.57 1.87 1.32 1.253 1.98 2.813 1.98 4.68zM105.15-23.4c-2.267 0-4.04 0.983-5.32 2.95-1.287 1.967-2.13 4.383-2.53 7.25v0c3.833-0.467 6.65-1.21 8.45-2.23 1.8-1.013 2.7-2.603 2.7-4.77v0c0-0.933-0.267-1.7-0.8-2.3-0.533-0.6-1.367-0.9-2.5-0.9zM130.4-26.9c0.733 0 1.517 0.117 2.35 0.35v0l-1.35 4.2c-0.733-0.167-1.383-0.25-1.95-0.25v0c-1.467 0-2.757 0.723-3.87 2.17-1.12 1.453-2.13 3.563-3.03 6.33v0l-1.95 14.1h-4.35l3.7-26.35h3.75l-0.35 5.1c0.9-1.867 1.933-3.277 3.1-4.23 1.167-0.947 2.483-1.42 3.95-1.42zM143.55-26.9c3.1 0 5.75 1.067 7.95 3.2v0l-2.15 2.55c-1.8-1.5-3.733-2.25-5.8-2.25v0c-1.433 0-2.573 0.333-3.42 1-0.853 0.667-1.28 1.6-1.28 2.8v0c0 0.933 0.35 1.693 1.05 2.28 0.7 0.58 1.917 1.187 3.65 1.82v0c2.167 0.767 3.767 1.733 4.8 2.9 1.033 1.167 1.55 2.7 1.55 4.6v0c0 1.767-0.45 3.3-1.35 4.6-0.9 1.3-2.123 2.29-3.67 2.97-1.553 0.687-3.247 1.03-5.08 1.03v0c-3.567 0-6.533-1.25-8.9-3.75v0l2.5-2.55c2 1.833 4.183 2.75 6.55 2.75v0c1.833 0 3.193-0.477 4.08-1.43 0.88-0.947 1.32-2.02 1.32-3.22v0c0-1.233-0.34-2.177-1.02-2.83-0.687-0.647-1.963-1.303-3.83-1.97v0c-2.167-0.8-3.723-1.733-4.67-2.8-0.953-1.067-1.43-2.45-1.43-4.15v0c0-1.3 0.367-2.527 1.1-3.68 0.733-1.147 1.793-2.08 3.18-2.8 1.38-0.713 3.003-1.07 4.87-1.07zM175.05-20.35c0 3.4-1.39 5.85-4.17 7.35-2.787 1.5-6.68 2.55-11.68 3.15v0 0.3c0 4.3 1.617 6.45 4.85 6.45v0c1.1 0 2.15-0.193 3.15-0.58 1-0.38 2.067-0.97 3.2-1.77v0l1.85 2.9c-2.767 2.1-5.65 3.15-8.65 3.15v0c-2.833 0-5.023-0.893-6.57-2.68-1.553-1.78-2.33-4.253-2.33-7.42v0c0-2.767 0.443-5.483 1.33-8.15 0.88-2.667 2.287-4.877 4.22-6.63 1.933-1.747 4.35-2.62 7.25-2.62v0c2.4 0 4.26 0.623 5.58 1.87 1.313 1.253 1.97 2.813 1.97 4.68zM167.3-23.4c-2.267 0-4.04 0.983-5.32 2.95-1.287 1.967-2.13 4.383-2.53 7.25v0c3.833-0.467 6.65-1.21 8.45-2.23 1.8-1.013 2.7-2.603 2.7-4.77v0c0-0.933-0.267-1.7-0.8-2.3-0.533-0.6-1.367-0.9-2.5-0.9z" fill="black" fill-rule="nonzero" stroke="none" stroke-width="1" stroke-linecap="butt" stroke-linejoin="miter" stroke-miterlimit="10" stroke-dasharray="" stroke-dashoffset="0" font-family="none" font-weight="none" font-size="none" text-anchor="none" style="mix-blend-mode: normal" opacity="1"></path></g></svg></g></svg></g></svg></g></svg></g><g transform="matrix(1,0,0,1,75.54432,0)"><svg viewBox="0 0 244.43135999999993 203.22476021514842" height="203.22476021514842" width="244.43135999999993"><g><svg xmlns="http://www.w3.org/2000/svg" xmlns:xlink="http://www.w3.org/1999/xlink" version="1.1" x="8" y="0" viewBox="0.4 0.2477790963781455 86.692 77.12584170829982" enable-background="new 0 0 87.142 77.878" xml:space="preserve" id="SvgjsSvg2706" width="228.43135999999993" height="203.22476021514842" class="icon-icon-0" data-fill-palette-color="accent"><g fill="black"><g fill="black"><g fill="black"><path d="M87.092 38.679L87.044 39.216C87.025 39.392 86.946 39.608 86.882 39.866 86.776 40.106 86.674 40.401 86.482 40.689 85.784 41.899 84.174 43.231 81.896 44.401 77.313 46.746 70.135 48.571 61.437 49.703 52.731 50.818 42.44 51.236 31.485 50.374 26.012 49.934 20.365 49.181 14.746 47.802 11.944 47.092 9.138 46.242 6.464 44.988 5.132 44.357 3.826 43.624 2.662 42.655 1.526 41.71 0.438 40.363 0.4 38.677L0.449 38.095C0.473 37.907 0.545 37.687 0.596 37.485 0.732 37.092 0.885 36.725 1.11 36.4 1.52 35.722 2.07 35.173 2.642 34.676 3.803 33.695 5.107 32.952 6.438 32.309 9.11 31.033 11.915 30.161 14.717 29.43 20.335 27.999 25.991 27.235 31.47 26.775 36.952 26.331 42.276 26.173 47.31 26.332 52.351 26.474 57.106 26.848 61.463 27.452 70.175 28.625 77.326 30.586 81.912 32.924 84.188 34.105 85.795 35.445 86.49 36.661 87.222 37.868 87.042 38.704 87.092 38.679M86.992 38.674C86.942 38.697 87.11 37.893 86.381 36.725 85.69 35.55 84.09 34.245 81.819 33.104 77.251 30.806 70.061 29.088 61.379 28.13 57.032 27.663 52.299 27.345 47.292 27.279 42.281 27.22 36.995 27.302 31.551 27.763 26.111 28.214 20.505 28.991 14.947 30.34 12.179 31.038 9.41 31.877 6.812 33.093 5.519 33.703 4.264 34.411 3.184 35.309 2.11 36.202 1.232 37.354 1.2 38.677 1.214 39.982 2.096 41.176 3.163 42.067 4.239 42.976 5.493 43.695 6.785 44.316 9.38 45.554 12.148 46.415 14.916 47.134 20.472 48.535 26.088 49.323 31.534 49.795 36.983 50.269 42.282 50.391 47.296 50.318 52.313 50.245 57.053 49.929 61.403 49.421 70.099 48.422 77.263 46.568 81.833 44.277 84.103 43.125 85.7 41.812 86.388 40.631 87.113 39.463 86.942 38.657 86.992 38.674" fill="black"></path><path d="M54.308 32.951L53.277 31.121C52.591 29.936 51.589 28.194 50.231 26.027A136 136 0 0 0 45.094 18.371C43.005 15.491 40.54 12.307 37.537 9.12 36.035 7.53 34.396 5.94 32.572 4.454 30.744 3.005 28.713 1.545 26.341 0.896 25.171 0.613 23.862 0.611 22.883 1.367 21.934 2.077 21.399 3.317 21.163 4.563 20.69 7.102 20.948 9.816 21.399 12.489 22.34 17.86 24.149 23.246 26.293 28.563 28.451 33.88 31.011 39.138 33.839 44.232 36.679 49.332 39.788 54.272 43.164 58.909 46.552 63.525 50.142 67.917 54.177 71.549 56.19 73.342 58.346 74.99 60.697 75.915 61.858 76.367 63.123 76.554 64.153 76.152L64.494 76.003 64.894 75.736C65.033 75.647 65.085 75.553 65.187 75.467 65.281 75.388 65.371 75.288 65.452 75.166 65.816 74.737 66.038 74.183 66.245 73.639 66.946 71.359 66.809 68.877 66.562 66.575A55 55 0 0 0 65.309 59.908C64.244 55.673 62.906 51.881 61.624 48.565A119 119 0 0 0 57.956 40.111C56.86 37.802 55.929 36.021 55.298 34.805zM54.396 32.903L55.41 34.745C56.057 35.953 57.012 37.724 58.14 40.022A158 158 0 0 1 61.978 48.423C63.347 51.717 64.787 55.488 65.973 59.734 66.556 61.858 67.086 64.101 67.399 66.473 67.679 68.836 67.89 71.363 67.15 73.933 66.924 74.561 66.677 75.207 66.227 75.766 66.05 76.049 65.706 76.34 65.452 76.559L65.056 76.832C64.831 76.964 64.703 76.998 64.521 77.084 63.119 77.619 61.615 77.337 60.349 76.851 57.776 75.832 55.583 74.126 53.517 72.292 49.4 68.577 45.767 64.154 42.403 59.462 39.041 54.764 35.951 49.764 33.144 44.625 30.33 39.477 27.795 34.186 25.658 28.822 23.536 23.46 21.749 18.032 20.831 12.587 20.394 9.873 20.138 7.12 20.65 4.458 20.916 3.151 21.463 1.8 22.605 0.953 23.728 0.105 25.238 0.135 26.458 0.455 28.955 1.176 30.974 2.686 32.809 4.173 34.633 5.697 36.259 7.315 37.748 8.93 40.714 12.174 43.16 15.377 45.245 18.268A136 136 0 0 1 50.352 25.957C51.702 28.132 52.696 29.88 53.377 31.07z" fill="black"></path><path d="M51.85 47.484L53.218 45.89C54.098 44.84 55.393 43.304 56.965 41.287A135 135 0 0 0 62.407 33.844C64.401 30.897 66.551 27.493 68.522 23.582 69.503 21.627 70.438 19.544 71.212 17.322 71.95 15.109 72.628 12.702 72.428 10.25 72.294 9.054 71.85 7.823 70.805 7.161 69.814 6.512 68.466 6.432 67.214 6.636 64.666 7.058 62.203 8.228 59.845 9.565 55.118 12.283 50.674 15.823 46.409 19.654 42.147 23.499 38.083 27.698 34.257 32.099 30.437 36.506 26.853 41.118 23.649 45.873 20.468 50.633 17.565 55.508 15.53 60.54 14.532 63.045 13.719 65.633 13.653 68.159 13.624 69.404 13.881 70.657 14.61 71.489L14.867 71.759 15.254 72.044C15.385 72.144 15.491 72.161 15.607 72.228 15.713 72.29 15.838 72.34 15.98 72.374 16.508 72.57 17.104 72.589 17.686 72.598 20.068 72.479 22.354 71.502 24.433 70.484A55 55 0 0 0 30.271 67.029C33.887 64.582 36.995 62.03 39.674 59.692A118 118 0 0 0 46.367 53.358C48.163 51.539 49.519 50.056 50.446 49.048zM51.925 47.55L50.54 49.132C49.625 50.153 48.287 51.655 46.513 53.5A159 159 0 0 1 39.928 59.976C37.299 62.388 34.247 65.029 30.661 67.593 28.863 68.866 26.936 70.13 24.814 71.234 22.688 72.304 20.385 73.366 17.718 73.547 17.051 73.549 16.359 73.538 15.68 73.305 15.354 73.235 14.962 73.012 14.67 72.847L14.278 72.567C14.077 72.4 14.001 72.292 13.858 72.15 12.876 71.015 12.628 69.505 12.652 68.149 12.731 65.382 13.586 62.739 14.604 60.171 16.69 55.032 19.606 50.108 22.868 45.344 26.136 40.579 29.778 35.97 33.653 31.573 37.526 27.174 41.637 22.981 45.948 19.142 50.263 15.317 54.754 11.783 59.558 9.061 61.959 7.723 64.459 6.543 67.136 6.114 68.455 5.918 69.912 5.97 71.098 6.755 72.278 7.521 72.766 8.95 72.882 10.206 73.057 12.799 72.327 15.212 71.556 17.445 70.747 19.679 69.781 21.761 68.771 23.712 66.735 27.607 64.56 31.001 62.555 33.947A136 136 0 0 1 57.072 41.373C55.489 43.384 54.185 44.916 53.3 45.962z" fill="black"></path></g></g><circle stroke="url(#bb396157-db1a-4e4d-93e1-eb8b74aab18b)" stroke-miterlimit="10" cx="30.609" cy="3.02" r="2.5" fill="black"></circle><circle stroke="url(#bb396157-db1a-4e4d-93e1-eb8b74aab18b)" stroke-miterlimit="10" cx="24.118" cy="71.052" r="2.5" fill="black"></circle><circle stroke="url(#bb396157-db1a-4e4d-93e1-eb8b74aab18b)" stroke-miterlimit="10" cx="83.864" cy="43.154" r="2.5" fill="black"></circle><circle stroke="url(#bb396157-db1a-4e4d-93e1-eb8b74aab18b)" stroke-miterlimit="10" cx="46.921" cy="41.058" r="2.5" fill="black"></circle><circle stroke="url(#bb396157-db1a-4e4d-93e1-eb8b74aab18b)" stroke-miterlimit="10" cx="40.373" cy="39.129" r="2.5" fill="black"></circle><circle stroke="url(#bb396157-db1a-4e4d-93e1-eb8b74aab18b)" stroke-miterlimit="10" cx="46.883" cy="34.472" r="2.5" fill="black"></circle></g></svg></g></svg></g><g></g></svg></g><defs><mask></mask></defs></svg><rect width="241.5264408203009" height="247.2" fill="black" stroke="none" visibility="hidden"></rect></g></mask><linearGradient x1="0" x2="1" y1="0.578" y2="0.595" id="ff2f2f7f-924a-452a-9bc3-f4846e0810c8"><stop stop-color="#6ee2f5" offset="0"></stop><stop stop-color="#6454f0" offset="1"></stop></linearGradient><rect width="241.5264408203009" height="247.2" fill="url(#ff2f2f7f-924a-452a-9bc3-f4846e0810c8)" mask="url(#97a8c6c4-6c51-4bbe-92d6-ac39a9cc4532)" data-fill-palette-color="primary"></rect><mask id="fdf2d5ff-ca20-41c9-ab7e-7a0aa18b7599"><g id="SvgjsG2720"><svg viewBox="0 0 241.5264408203009 247.2" height="247.2" width="241.5264408203009"><g><svg viewBox="0 0 395.5199999999999 404.81093361013893" height="247.2" width="241.5264408203009"><g transform="matrix(1,0,0,1,0,223.15203179785874)"><svg viewBox="0 0 395.5199999999999 181.65890181228022" height="181.65890181228022" width="395.5199999999999"><g id="SvgjsG2719"><svg viewBox="0 0 395.5199999999999 181.65890181228022" height="181.65890181228022" width="395.5199999999999" id="SvgjsSvg2718"><g><svg viewBox="0 0 395.5199999999999 181.65890181228022" height="181.65890181228022" width="395.5199999999999"><g transform="matrix(1,0,0,1,0,0)"><svg width="395.5199999999999" viewBox="82.63 -37.45 184.85000000000002 80.5" height="181.65890181228022" data-palette-color="url(#ff2f2f7f-924a-452a-9bc3-f4846e0810c8)"><svg></svg><svg></svg><g class="wordmark-text-0" data-fill-palette-color="primary" id="SvgjsG2717"><path transform="translate(85.88,42.45)" d="M28.5-34.45l-3.4 24.6c-0.433 3.067-1.733 5.573-3.9 7.52-2.167 1.953-4.95 2.93-8.35 2.93v0c-3.067 0-5.423-0.843-7.07-2.53-1.653-1.68-2.48-3.853-2.48-6.52v0c0-0.767 0.033-1.35 0.1-1.75v0l3.45-24.25h4.5l-3.4 24.35c-0.067 0.4-0.1 0.95-0.1 1.65v0c0 3.467 1.767 5.2 5.3 5.2v0c2.167 0 3.883-0.633 5.15-1.9 1.267-1.267 2.05-3.017 2.35-5.25v0l3.35-24.05zM46.85-26.95c1.733 0 3.117 0.567 4.15 1.7 1.033 1.133 1.55 2.683 1.55 4.65v0c0 0.6-0.05 1.2-0.15 1.8v0l-2.65 18.8h-4.35l2.65-18.75c0.067-0.667 0.1-1.133 0.1-1.4v0c0-2.067-0.833-3.1-2.5-3.1v0c-2.333 0-4.8 2.4-7.4 7.2v0l-2.25 16.05h-4.35l3.7-26.35h3.75l-0.4 5c1.2-1.8 2.45-3.183 3.75-4.15 1.3-0.967 2.767-1.45 4.4-1.45zM61.45-26.35h4.35l-3.7 26.35h-4.35zM64.55-32.85c-0.833 0-1.5-0.25-2-0.75-0.5-0.5-0.75-1.15-0.75-1.95v0c0-0.967 0.317-1.76 0.95-2.38 0.633-0.613 1.4-0.92 2.3-0.92v0c0.833 0 1.5 0.25 2 0.75 0.5 0.5 0.75 1.15 0.75 1.95v0c0 0.967-0.317 1.76-0.95 2.38-0.633 0.613-1.4 0.92-2.3 0.92zM86.95-26.35h4.7l-11.65 26.35h-5.2l-4.35-26.35h4.7l2.8 22.4zM112.9-20.35c0 3.4-1.393 5.85-4.18 7.35-2.78 1.5-6.67 2.55-11.67 3.15v0 0.3c0 4.3 1.617 6.45 4.85 6.45v0c1.1 0 2.15-0.193 3.15-0.58 1-0.38 2.067-0.97 3.2-1.77v0l1.85 2.9c-2.767 2.1-5.65 3.15-8.65 3.15v0c-2.833 0-5.023-0.893-6.57-2.68-1.553-1.78-2.33-4.253-2.33-7.42v0c0-2.767 0.443-5.483 1.33-8.15 0.88-2.667 2.287-4.877 4.22-6.63 1.933-1.747 4.35-2.62 7.25-2.62v0c2.4 0 4.257 0.623 5.57 1.87 1.32 1.253 1.98 2.813 1.98 4.68zM105.15-23.4c-2.267 0-4.04 0.983-5.32 2.95-1.287 1.967-2.13 4.383-2.53 7.25v0c3.833-0.467 6.65-1.21 8.45-2.23 1.8-1.013 2.7-2.603 2.7-4.77v0c0-0.933-0.267-1.7-0.8-2.3-0.533-0.6-1.367-0.9-2.5-0.9zM130.4-26.9c0.733 0 1.517 0.117 2.35 0.35v0l-1.35 4.2c-0.733-0.167-1.383-0.25-1.95-0.25v0c-1.467 0-2.757 0.723-3.87 2.17-1.12 1.453-2.13 3.563-3.03 6.33v0l-1.95 14.1h-4.35l3.7-26.35h3.75l-0.35 5.1c0.9-1.867 1.933-3.277 3.1-4.23 1.167-0.947 2.483-1.42 3.95-1.42zM143.55-26.9c3.1 0 5.75 1.067 7.95 3.2v0l-2.15 2.55c-1.8-1.5-3.733-2.25-5.8-2.25v0c-1.433 0-2.573 0.333-3.42 1-0.853 0.667-1.28 1.6-1.28 2.8v0c0 0.933 0.35 1.693 1.05 2.28 0.7 0.58 1.917 1.187 3.65 1.82v0c2.167 0.767 3.767 1.733 4.8 2.9 1.033 1.167 1.55 2.7 1.55 4.6v0c0 1.767-0.45 3.3-1.35 4.6-0.9 1.3-2.123 2.29-3.67 2.97-1.553 0.687-3.247 1.03-5.08 1.03v0c-3.567 0-6.533-1.25-8.9-3.75v0l2.5-2.55c2 1.833 4.183 2.75 6.55 2.75v0c1.833 0 3.193-0.477 4.08-1.43 0.88-0.947 1.32-2.02 1.32-3.22v0c0-1.233-0.34-2.177-1.02-2.83-0.687-0.647-1.963-1.303-3.83-1.97v0c-2.167-0.8-3.723-1.733-4.67-2.8-0.953-1.067-1.43-2.45-1.43-4.15v0c0-1.3 0.367-2.527 1.1-3.68 0.733-1.147 1.793-2.08 3.18-2.8 1.38-0.713 3.003-1.07 4.87-1.07zM175.05-20.35c0 3.4-1.39 5.85-4.17 7.35-2.787 1.5-6.68 2.55-11.68 3.15v0 0.3c0 4.3 1.617 6.45 4.85 6.45v0c1.1 0 2.15-0.193 3.15-0.58 1-0.38 2.067-0.97 3.2-1.77v0l1.85 2.9c-2.767 2.1-5.65 3.15-8.65 3.15v0c-2.833 0-5.023-0.893-6.57-2.68-1.553-1.78-2.33-4.253-2.33-7.42v0c0-2.767 0.443-5.483 1.33-8.15 0.88-2.667 2.287-4.877 4.22-6.63 1.933-1.747 4.35-2.62 7.25-2.62v0c2.4 0 4.26 0.623 5.58 1.87 1.313 1.253 1.97 2.813 1.97 4.68zM167.3-23.4c-2.267 0-4.04 0.983-5.32 2.95-1.287 1.967-2.13 4.383-2.53 7.25v0c3.833-0.467 6.65-1.21 8.45-2.23 1.8-1.013 2.7-2.603 2.7-4.77v0c0-0.933-0.267-1.7-0.8-2.3-0.533-0.6-1.367-0.9-2.5-0.9z" fill="white" fill-rule="nonzero" stroke="none" stroke-width="1" stroke-linecap="butt" stroke-linejoin="miter" stroke-miterlimit="10" stroke-dasharray="" stroke-dashoffset="0" font-family="none" font-weight="none" font-size="none" text-anchor="none" style="mix-blend-mode: normal" opacity="1"></path></g></svg></g></svg></g></svg></g></svg></g><g transform="matrix(1,0,0,1,75.54432,0)"><svg viewBox="0 0 244.43135999999993 203.22476021514842" height="203.22476021514842" width="244.43135999999993"><g><svg xmlns="http://www.w3.org/2000/svg" xmlns:xlink="http://www.w3.org/1999/xlink" version="1.1" x="8" y="0" viewBox="0.4 0.2477790963781455 86.692 77.12584170829982" enable-background="new 0 0 87.142 77.878" xml:space="preserve" id="SvgjsSvg2716" width="228.43135999999993" height="203.22476021514842" class="icon-icon-0" data-fill-palette-color="accent"><g fill="black"><g fill="black"><g fill="black"><path d="M87.092 38.679L87.044 39.216C87.025 39.392 86.946 39.608 86.882 39.866 86.776 40.106 86.674 40.401 86.482 40.689 85.784 41.899 84.174 43.231 81.896 44.401 77.313 46.746 70.135 48.571 61.437 49.703 52.731 50.818 42.44 51.236 31.485 50.374 26.012 49.934 20.365 49.181 14.746 47.802 11.944 47.092 9.138 46.242 6.464 44.988 5.132 44.357 3.826 43.624 2.662 42.655 1.526 41.71 0.438 40.363 0.4 38.677L0.449 38.095C0.473 37.907 0.545 37.687 0.596 37.485 0.732 37.092 0.885 36.725 1.11 36.4 1.52 35.722 2.07 35.173 2.642 34.676 3.803 33.695 5.107 32.952 6.438 32.309 9.11 31.033 11.915 30.161 14.717 29.43 20.335 27.999 25.991 27.235 31.47 26.775 36.952 26.331 42.276 26.173 47.31 26.332 52.351 26.474 57.106 26.848 61.463 27.452 70.175 28.625 77.326 30.586 81.912 32.924 84.188 34.105 85.795 35.445 86.49 36.661 87.222 37.868 87.042 38.704 87.092 38.679M86.992 38.674C86.942 38.697 87.11 37.893 86.381 36.725 85.69 35.55 84.09 34.245 81.819 33.104 77.251 30.806 70.061 29.088 61.379 28.13 57.032 27.663 52.299 27.345 47.292 27.279 42.281 27.22 36.995 27.302 31.551 27.763 26.111 28.214 20.505 28.991 14.947 30.34 12.179 31.038 9.41 31.877 6.812 33.093 5.519 33.703 4.264 34.411 3.184 35.309 2.11 36.202 1.232 37.354 1.2 38.677 1.214 39.982 2.096 41.176 3.163 42.067 4.239 42.976 5.493 43.695 6.785 44.316 9.38 45.554 12.148 46.415 14.916 47.134 20.472 48.535 26.088 49.323 31.534 49.795 36.983 50.269 42.282 50.391 47.296 50.318 52.313 50.245 57.053 49.929 61.403 49.421 70.099 48.422 77.263 46.568 81.833 44.277 84.103 43.125 85.7 41.812 86.388 40.631 87.113 39.463 86.942 38.657 86.992 38.674" fill="black"></path><path d="M54.308 32.951L53.277 31.121C52.591 29.936 51.589 28.194 50.231 26.027A136 136 0 0 0 45.094 18.371C43.005 15.491 40.54 12.307 37.537 9.12 36.035 7.53 34.396 5.94 32.572 4.454 30.744 3.005 28.713 1.545 26.341 0.896 25.171 0.613 23.862 0.611 22.883 1.367 21.934 2.077 21.399 3.317 21.163 4.563 20.69 7.102 20.948 9.816 21.399 12.489 22.34 17.86 24.149 23.246 26.293 28.563 28.451 33.88 31.011 39.138 33.839 44.232 36.679 49.332 39.788 54.272 43.164 58.909 46.552 63.525 50.142 67.917 54.177 71.549 56.19 73.342 58.346 74.99 60.697 75.915 61.858 76.367 63.123 76.554 64.153 76.152L64.494 76.003 64.894 75.736C65.033 75.647 65.085 75.553 65.187 75.467 65.281 75.388 65.371 75.288 65.452 75.166 65.816 74.737 66.038 74.183 66.245 73.639 66.946 71.359 66.809 68.877 66.562 66.575A55 55 0 0 0 65.309 59.908C64.244 55.673 62.906 51.881 61.624 48.565A119 119 0 0 0 57.956 40.111C56.86 37.802 55.929 36.021 55.298 34.805zM54.396 32.903L55.41 34.745C56.057 35.953 57.012 37.724 58.14 40.022A158 158 0 0 1 61.978 48.423C63.347 51.717 64.787 55.488 65.973 59.734 66.556 61.858 67.086 64.101 67.399 66.473 67.679 68.836 67.89 71.363 67.15 73.933 66.924 74.561 66.677 75.207 66.227 75.766 66.05 76.049 65.706 76.34 65.452 76.559L65.056 76.832C64.831 76.964 64.703 76.998 64.521 77.084 63.119 77.619 61.615 77.337 60.349 76.851 57.776 75.832 55.583 74.126 53.517 72.292 49.4 68.577 45.767 64.154 42.403 59.462 39.041 54.764 35.951 49.764 33.144 44.625 30.33 39.477 27.795 34.186 25.658 28.822 23.536 23.46 21.749 18.032 20.831 12.587 20.394 9.873 20.138 7.12 20.65 4.458 20.916 3.151 21.463 1.8 22.605 0.953 23.728 0.105 25.238 0.135 26.458 0.455 28.955 1.176 30.974 2.686 32.809 4.173 34.633 5.697 36.259 7.315 37.748 8.93 40.714 12.174 43.16 15.377 45.245 18.268A136 136 0 0 1 50.352 25.957C51.702 28.132 52.696 29.88 53.377 31.07z" fill="black"></path><path d="M51.85 47.484L53.218 45.89C54.098 44.84 55.393 43.304 56.965 41.287A135 135 0 0 0 62.407 33.844C64.401 30.897 66.551 27.493 68.522 23.582 69.503 21.627 70.438 19.544 71.212 17.322 71.95 15.109 72.628 12.702 72.428 10.25 72.294 9.054 71.85 7.823 70.805 7.161 69.814 6.512 68.466 6.432 67.214 6.636 64.666 7.058 62.203 8.228 59.845 9.565 55.118 12.283 50.674 15.823 46.409 19.654 42.147 23.499 38.083 27.698 34.257 32.099 30.437 36.506 26.853 41.118 23.649 45.873 20.468 50.633 17.565 55.508 15.53 60.54 14.532 63.045 13.719 65.633 13.653 68.159 13.624 69.404 13.881 70.657 14.61 71.489L14.867 71.759 15.254 72.044C15.385 72.144 15.491 72.161 15.607 72.228 15.713 72.29 15.838 72.34 15.98 72.374 16.508 72.57 17.104 72.589 17.686 72.598 20.068 72.479 22.354 71.502 24.433 70.484A55 55 0 0 0 30.271 67.029C33.887 64.582 36.995 62.03 39.674 59.692A118 118 0 0 0 46.367 53.358C48.163 51.539 49.519 50.056 50.446 49.048zM51.925 47.55L50.54 49.132C49.625 50.153 48.287 51.655 46.513 53.5A159 159 0 0 1 39.928 59.976C37.299 62.388 34.247 65.029 30.661 67.593 28.863 68.866 26.936 70.13 24.814 71.234 22.688 72.304 20.385 73.366 17.718 73.547 17.051 73.549 16.359 73.538 15.68 73.305 15.354 73.235 14.962 73.012 14.67 72.847L14.278 72.567C14.077 72.4 14.001 72.292 13.858 72.15 12.876 71.015 12.628 69.505 12.652 68.149 12.731 65.382 13.586 62.739 14.604 60.171 16.69 55.032 19.606 50.108 22.868 45.344 26.136 40.579 29.778 35.97 33.653 31.573 37.526 27.174 41.637 22.981 45.948 19.142 50.263 15.317 54.754 11.783 59.558 9.061 61.959 7.723 64.459 6.543 67.136 6.114 68.455 5.918 69.912 5.97 71.098 6.755 72.278 7.521 72.766 8.95 72.882 10.206 73.057 12.799 72.327 15.212 71.556 17.445 70.747 19.679 69.781 21.761 68.771 23.712 66.735 27.607 64.56 31.001 62.555 33.947A136 136 0 0 1 57.072 41.373C55.489 43.384 54.185 44.916 53.3 45.962z" fill="black"></path></g></g><circle stroke="url(#bb396157-db1a-4e4d-93e1-eb8b74aab18b)" stroke-miterlimit="10" cx="30.609" cy="3.02" r="2.5" fill="black"></circle><circle stroke="url(#bb396157-db1a-4e4d-93e1-eb8b74aab18b)" stroke-miterlimit="10" cx="24.118" cy="71.052" r="2.5" fill="black"></circle><circle stroke="url(#bb396157-db1a-4e4d-93e1-eb8b74aab18b)" stroke-miterlimit="10" cx="83.864" cy="43.154" r="2.5" fill="black"></circle><circle stroke="url(#bb396157-db1a-4e4d-93e1-eb8b74aab18b)" stroke-miterlimit="10" cx="46.921" cy="41.058" r="2.5" fill="black"></circle><circle stroke="url(#bb396157-db1a-4e4d-93e1-eb8b74aab18b)" stroke-miterlimit="10" cx="40.373" cy="39.129" r="2.5" fill="black"></circle><circle stroke="url(#bb396157-db1a-4e4d-93e1-eb8b74aab18b)" stroke-miterlimit="10" cx="46.883" cy="34.472" r="2.5" fill="black"></circle></g></svg></g></svg></g><g></g></svg></g><defs><mask></mask></defs><mask><g id="SvgjsG2715"><svg viewBox="0 0 241.5264408203009 247.2" height="247.2" width="241.5264408203009"><g><svg viewBox="0 0 395.5199999999999 404.81093361013893" height="247.2" width="241.5264408203009"><g transform="matrix(1,0,0,1,0,223.15203179785874)"><svg viewBox="0 0 395.5199999999999 181.65890181228022" height="181.65890181228022" width="395.5199999999999"><g id="SvgjsG2714"><svg viewBox="0 0 395.5199999999999 181.65890181228022" height="181.65890181228022" width="395.5199999999999" id="SvgjsSvg2713"><g><svg viewBox="0 0 395.5199999999999 181.65890181228022" height="181.65890181228022" width="395.5199999999999"><g transform="matrix(1,0,0,1,0,0)"><svg width="395.5199999999999" viewBox="82.63 -37.45 184.85000000000002 80.5" height="181.65890181228022" data-palette-color="url(#ff2f2f7f-924a-452a-9bc3-f4846e0810c8)"><svg></svg><svg></svg><g class="wordmark-text-0" data-fill-palette-color="primary" id="SvgjsG2712"><path transform="translate(79.33,0)" d="M28.5-34.45l-3.4 24.6c-0.433 3.067-1.733 5.573-3.9 7.52-2.167 1.953-4.95 2.93-8.35 2.93v0c-3.067 0-5.423-0.843-7.07-2.53-1.653-1.68-2.48-3.853-2.48-6.52v0c0-0.767 0.033-1.35 0.1-1.75v0l3.45-24.25h4.5l-3.4 24.35c-0.067 0.4-0.1 0.95-0.1 1.65v0c0 3.467 1.767 5.2 5.3 5.2v0c2.167 0 3.883-0.633 5.15-1.9 1.267-1.267 2.05-3.017 2.35-5.25v0l3.35-24.05zM46.85-26.95c1.733 0 3.117 0.567 4.15 1.7 1.033 1.133 1.55 2.683 1.55 4.65v0c0 0.6-0.05 1.2-0.15 1.8v0l-2.65 18.8h-4.35l2.65-18.75c0.067-0.667 0.1-1.133 0.1-1.4v0c0-2.067-0.833-3.1-2.5-3.1v0c-2.333 0-4.8 2.4-7.4 7.2v0l-2.25 16.05h-4.35l3.7-26.35h3.75l-0.4 5c1.2-1.8 2.45-3.183 3.75-4.15 1.3-0.967 2.767-1.45 4.4-1.45zM67.35-37.45l-2.2 15.75c2.233-3.467 4.933-5.2 8.1-5.2v0c1.767 0 3.2 0.533 4.3 1.6 1.1 1.067 1.65 2.467 1.65 4.2v0c0 2.067-0.64 3.883-1.92 5.45-1.287 1.567-3.197 2.867-5.73 3.9v0l5.2 11.75h-4.75l-5.4-12.85c2.867-0.833 4.927-1.867 6.18-3.1 1.247-1.233 1.87-2.8 1.87-4.7v0c0-0.9-0.227-1.593-0.68-2.08-0.447-0.48-1.087-0.72-1.92-0.72v0c-1.3 0-2.64 0.657-4.02 1.97-1.387 1.32-2.63 3.23-3.73 5.73v0l-2.2 15.75h-4.35l5.2-36.95zM97.7-26.95c1.733 0 3.117 0.567 4.15 1.7 1.033 1.133 1.55 2.683 1.55 4.65v0c0 0.6-0.05 1.2-0.15 1.8v0l-2.65 18.8h-4.35l2.65-18.75c0.067-0.667 0.1-1.133 0.1-1.4v0c0-2.067-0.833-3.1-2.5-3.1v0c-2.333 0-4.8 2.4-7.4 7.2v0l-2.25 16.05h-4.35l3.7-26.35h3.75l-0.4 5c1.2-1.8 2.45-3.183 3.75-4.15 1.3-0.967 2.767-1.45 4.4-1.45zM117.55 0.6c-2.867 0-5.077-0.917-6.63-2.75-1.547-1.833-2.32-4.35-2.32-7.55v0c0-2.6 0.433-5.217 1.3-7.85 0.867-2.633 2.257-4.85 4.17-6.65 1.92-1.8 4.363-2.7 7.33-2.7v0c2.833 0 5.023 0.907 6.57 2.72 1.553 1.82 2.33 4.33 2.33 7.53v0c0 2.567-0.423 5.173-1.27 7.82-0.853 2.653-2.237 4.887-4.15 6.7-1.92 1.82-4.363 2.73-7.33 2.73zM117.7-2.95c1.967 0 3.55-0.767 4.75-2.3 1.2-1.533 2.057-3.383 2.57-5.55 0.52-2.167 0.78-4.267 0.78-6.3v0c0-4.167-1.533-6.25-4.6-6.25v0c-1.967 0-3.55 0.757-4.75 2.27-1.2 1.52-2.057 3.353-2.57 5.5-0.52 2.153-0.78 4.263-0.78 6.33v0c0 4.2 1.533 6.3 4.6 6.3zM161.65-26.35h4.2l-8.95 26.35h-5.75l-1-22.4-7.35 22.4h-5.6l-1.75-26.35h4.25l0.85 23.25 7.8-23.25h4.85l1.1 23.25zM182.45-26.95c1.733 0 3.117 0.567 4.15 1.7 1.033 1.133 1.55 2.683 1.55 4.65v0c0 0.6-0.05 1.2-0.15 1.8v0l-2.65 18.8h-4.35l2.65-18.75c0.067-0.667 0.1-1.133 0.1-1.4v0c0-2.067-0.833-3.1-2.5-3.1v0c-2.333 0-4.8 2.4-7.4 7.2v0l-2.25 16.05h-4.35l3.7-26.35h3.75l-0.4 5c1.2-1.8 2.45-3.183 3.75-4.15 1.3-0.967 2.767-1.45 4.4-1.45z" fill="black" fill-rule="nonzero" stroke="none" stroke-width="1" stroke-linecap="butt" stroke-linejoin="miter" stroke-miterlimit="10" stroke-dasharray="" stroke-dashoffset="0" font-family="none" font-weight="none" font-size="none" text-anchor="none" style="mix-blend-mode: normal" opacity="1"></path><path transform="translate(85.88,42.45)" d="M28.5-34.45l-3.4 24.6c-0.433 3.067-1.733 5.573-3.9 7.52-2.167 1.953-4.95 2.93-8.35 2.93v0c-3.067 0-5.423-0.843-7.07-2.53-1.653-1.68-2.48-3.853-2.48-6.52v0c0-0.767 0.033-1.35 0.1-1.75v0l3.45-24.25h4.5l-3.4 24.35c-0.067 0.4-0.1 0.95-0.1 1.65v0c0 3.467 1.767 5.2 5.3 5.2v0c2.167 0 3.883-0.633 5.15-1.9 1.267-1.267 2.05-3.017 2.35-5.25v0l3.35-24.05zM46.85-26.95c1.733 0 3.117 0.567 4.15 1.7 1.033 1.133 1.55 2.683 1.55 4.65v0c0 0.6-0.05 1.2-0.15 1.8v0l-2.65 18.8h-4.35l2.65-18.75c0.067-0.667 0.1-1.133 0.1-1.4v0c0-2.067-0.833-3.1-2.5-3.1v0c-2.333 0-4.8 2.4-7.4 7.2v0l-2.25 16.05h-4.35l3.7-26.35h3.75l-0.4 5c1.2-1.8 2.45-3.183 3.75-4.15 1.3-0.967 2.767-1.45 4.4-1.45zM61.45-26.35h4.35l-3.7 26.35h-4.35zM64.55-32.85c-0.833 0-1.5-0.25-2-0.75-0.5-0.5-0.75-1.15-0.75-1.95v0c0-0.967 0.317-1.76 0.95-2.38 0.633-0.613 1.4-0.92 2.3-0.92v0c0.833 0 1.5 0.25 2 0.75 0.5 0.5 0.75 1.15 0.75 1.95v0c0 0.967-0.317 1.76-0.95 2.38-0.633 0.613-1.4 0.92-2.3 0.92zM86.95-26.35h4.7l-11.65 26.35h-5.2l-4.35-26.35h4.7l2.8 22.4zM112.9-20.35c0 3.4-1.393 5.85-4.18 7.35-2.78 1.5-6.67 2.55-11.67 3.15v0 0.3c0 4.3 1.617 6.45 4.85 6.45v0c1.1 0 2.15-0.193 3.15-0.58 1-0.38 2.067-0.97 3.2-1.77v0l1.85 2.9c-2.767 2.1-5.65 3.15-8.65 3.15v0c-2.833 0-5.023-0.893-6.57-2.68-1.553-1.78-2.33-4.253-2.33-7.42v0c0-2.767 0.443-5.483 1.33-8.15 0.88-2.667 2.287-4.877 4.22-6.63 1.933-1.747 4.35-2.62 7.25-2.62v0c2.4 0 4.257 0.623 5.57 1.87 1.32 1.253 1.98 2.813 1.98 4.68zM105.15-23.4c-2.267 0-4.04 0.983-5.32 2.95-1.287 1.967-2.13 4.383-2.53 7.25v0c3.833-0.467 6.65-1.21 8.45-2.23 1.8-1.013 2.7-2.603 2.7-4.77v0c0-0.933-0.267-1.7-0.8-2.3-0.533-0.6-1.367-0.9-2.5-0.9zM130.4-26.9c0.733 0 1.517 0.117 2.35 0.35v0l-1.35 4.2c-0.733-0.167-1.383-0.25-1.95-0.25v0c-1.467 0-2.757 0.723-3.87 2.17-1.12 1.453-2.13 3.563-3.03 6.33v0l-1.95 14.1h-4.35l3.7-26.35h3.75l-0.35 5.1c0.9-1.867 1.933-3.277 3.1-4.23 1.167-0.947 2.483-1.42 3.95-1.42zM143.55-26.9c3.1 0 5.75 1.067 7.95 3.2v0l-2.15 2.55c-1.8-1.5-3.733-2.25-5.8-2.25v0c-1.433 0-2.573 0.333-3.42 1-0.853 0.667-1.28 1.6-1.28 2.8v0c0 0.933 0.35 1.693 1.05 2.28 0.7 0.58 1.917 1.187 3.65 1.82v0c2.167 0.767 3.767 1.733 4.8 2.9 1.033 1.167 1.55 2.7 1.55 4.6v0c0 1.767-0.45 3.3-1.35 4.6-0.9 1.3-2.123 2.29-3.67 2.97-1.553 0.687-3.247 1.03-5.08 1.03v0c-3.567 0-6.533-1.25-8.9-3.75v0l2.5-2.55c2 1.833 4.183 2.75 6.55 2.75v0c1.833 0 3.193-0.477 4.08-1.43 0.88-0.947 1.32-2.02 1.32-3.22v0c0-1.233-0.34-2.177-1.02-2.83-0.687-0.647-1.963-1.303-3.83-1.97v0c-2.167-0.8-3.723-1.733-4.67-2.8-0.953-1.067-1.43-2.45-1.43-4.15v0c0-1.3 0.367-2.527 1.1-3.68 0.733-1.147 1.793-2.08 3.18-2.8 1.38-0.713 3.003-1.07 4.87-1.07zM175.05-20.35c0 3.4-1.39 5.85-4.17 7.35-2.787 1.5-6.68 2.55-11.68 3.15v0 0.3c0 4.3 1.617 6.45 4.85 6.45v0c1.1 0 2.15-0.193 3.15-0.58 1-0.38 2.067-0.97 3.2-1.77v0l1.85 2.9c-2.767 2.1-5.65 3.15-8.65 3.15v0c-2.833 0-5.023-0.893-6.57-2.68-1.553-1.78-2.33-4.253-2.33-7.42v0c0-2.767 0.443-5.483 1.33-8.15 0.88-2.667 2.287-4.877 4.22-6.63 1.933-1.747 4.35-2.62 7.25-2.62v0c2.4 0 4.26 0.623 5.58 1.87 1.313 1.253 1.97 2.813 1.97 4.68zM167.3-23.4c-2.267 0-4.04 0.983-5.32 2.95-1.287 1.967-2.13 4.383-2.53 7.25v0c3.833-0.467 6.65-1.21 8.45-2.23 1.8-1.013 2.7-2.603 2.7-4.77v0c0-0.933-0.267-1.7-0.8-2.3-0.533-0.6-1.367-0.9-2.5-0.9z" fill="black" fill-rule="nonzero" stroke="none" stroke-width="1" stroke-linecap="butt" stroke-linejoin="miter" stroke-miterlimit="10" stroke-dasharray="" stroke-dashoffset="0" font-family="none" font-weight="none" font-size="none" text-anchor="none" style="mix-blend-mode: normal" opacity="1"></path></g></svg></g></svg></g></svg></g></svg></g><g transform="matrix(1,0,0,1,75.54432,0)"><svg viewBox="0 0 244.43135999999993 203.22476021514842" height="203.22476021514842" width="244.43135999999993"><g><svg xmlns="http://www.w3.org/2000/svg" xmlns:xlink="http://www.w3.org/1999/xlink" version="1.1" x="8" y="0" viewBox="0.4 0.2477790963781455 86.692 77.12584170829982" enable-background="new 0 0 87.142 77.878" xml:space="preserve" id="SvgjsSvg2711" width="228.43135999999993" height="203.22476021514842" class="icon-icon-0" data-fill-palette-color="accent"><g fill="black"><g fill="black"><g fill="black"><path d="M87.092 38.679L87.044 39.216C87.025 39.392 86.946 39.608 86.882 39.866 86.776 40.106 86.674 40.401 86.482 40.689 85.784 41.899 84.174 43.231 81.896 44.401 77.313 46.746 70.135 48.571 61.437 49.703 52.731 50.818 42.44 51.236 31.485 50.374 26.012 49.934 20.365 49.181 14.746 47.802 11.944 47.092 9.138 46.242 6.464 44.988 5.132 44.357 3.826 43.624 2.662 42.655 1.526 41.71 0.438 40.363 0.4 38.677L0.449 38.095C0.473 37.907 0.545 37.687 0.596 37.485 0.732 37.092 0.885 36.725 1.11 36.4 1.52 35.722 2.07 35.173 2.642 34.676 3.803 33.695 5.107 32.952 6.438 32.309 9.11 31.033 11.915 30.161 14.717 29.43 20.335 27.999 25.991 27.235 31.47 26.775 36.952 26.331 42.276 26.173 47.31 26.332 52.351 26.474 57.106 26.848 61.463 27.452 70.175 28.625 77.326 30.586 81.912 32.924 84.188 34.105 85.795 35.445 86.49 36.661 87.222 37.868 87.042 38.704 87.092 38.679M86.992 38.674C86.942 38.697 87.11 37.893 86.381 36.725 85.69 35.55 84.09 34.245 81.819 33.104 77.251 30.806 70.061 29.088 61.379 28.13 57.032 27.663 52.299 27.345 47.292 27.279 42.281 27.22 36.995 27.302 31.551 27.763 26.111 28.214 20.505 28.991 14.947 30.34 12.179 31.038 9.41 31.877 6.812 33.093 5.519 33.703 4.264 34.411 3.184 35.309 2.11 36.202 1.232 37.354 1.2 38.677 1.214 39.982 2.096 41.176 3.163 42.067 4.239 42.976 5.493 43.695 6.785 44.316 9.38 45.554 12.148 46.415 14.916 47.134 20.472 48.535 26.088 49.323 31.534 49.795 36.983 50.269 42.282 50.391 47.296 50.318 52.313 50.245 57.053 49.929 61.403 49.421 70.099 48.422 77.263 46.568 81.833 44.277 84.103 43.125 85.7 41.812 86.388 40.631 87.113 39.463 86.942 38.657 86.992 38.674" fill="black"></path><path d="M54.308 32.951L53.277 31.121C52.591 29.936 51.589 28.194 50.231 26.027A136 136 0 0 0 45.094 18.371C43.005 15.491 40.54 12.307 37.537 9.12 36.035 7.53 34.396 5.94 32.572 4.454 30.744 3.005 28.713 1.545 26.341 0.896 25.171 0.613 23.862 0.611 22.883 1.367 21.934 2.077 21.399 3.317 21.163 4.563 20.69 7.102 20.948 9.816 21.399 12.489 22.34 17.86 24.149 23.246 26.293 28.563 28.451 33.88 31.011 39.138 33.839 44.232 36.679 49.332 39.788 54.272 43.164 58.909 46.552 63.525 50.142 67.917 54.177 71.549 56.19 73.342 58.346 74.99 60.697 75.915 61.858 76.367 63.123 76.554 64.153 76.152L64.494 76.003 64.894 75.736C65.033 75.647 65.085 75.553 65.187 75.467 65.281 75.388 65.371 75.288 65.452 75.166 65.816 74.737 66.038 74.183 66.245 73.639 66.946 71.359 66.809 68.877 66.562 66.575A55 55 0 0 0 65.309 59.908C64.244 55.673 62.906 51.881 61.624 48.565A119 119 0 0 0 57.956 40.111C56.86 37.802 55.929 36.021 55.298 34.805zM54.396 32.903L55.41 34.745C56.057 35.953 57.012 37.724 58.14 40.022A158 158 0 0 1 61.978 48.423C63.347 51.717 64.787 55.488 65.973 59.734 66.556 61.858 67.086 64.101 67.399 66.473 67.679 68.836 67.89 71.363 67.15 73.933 66.924 74.561 66.677 75.207 66.227 75.766 66.05 76.049 65.706 76.34 65.452 76.559L65.056 76.832C64.831 76.964 64.703 76.998 64.521 77.084 63.119 77.619 61.615 77.337 60.349 76.851 57.776 75.832 55.583 74.126 53.517 72.292 49.4 68.577 45.767 64.154 42.403 59.462 39.041 54.764 35.951 49.764 33.144 44.625 30.33 39.477 27.795 34.186 25.658 28.822 23.536 23.46 21.749 18.032 20.831 12.587 20.394 9.873 20.138 7.12 20.65 4.458 20.916 3.151 21.463 1.8 22.605 0.953 23.728 0.105 25.238 0.135 26.458 0.455 28.955 1.176 30.974 2.686 32.809 4.173 34.633 5.697 36.259 7.315 37.748 8.93 40.714 12.174 43.16 15.377 45.245 18.268A136 136 0 0 1 50.352 25.957C51.702 28.132 52.696 29.88 53.377 31.07z" fill="black"></path><path d="M51.85 47.484L53.218 45.89C54.098 44.84 55.393 43.304 56.965 41.287A135 135 0 0 0 62.407 33.844C64.401 30.897 66.551 27.493 68.522 23.582 69.503 21.627 70.438 19.544 71.212 17.322 71.95 15.109 72.628 12.702 72.428 10.25 72.294 9.054 71.85 7.823 70.805 7.161 69.814 6.512 68.466 6.432 67.214 6.636 64.666 7.058 62.203 8.228 59.845 9.565 55.118 12.283 50.674 15.823 46.409 19.654 42.147 23.499 38.083 27.698 34.257 32.099 30.437 36.506 26.853 41.118 23.649 45.873 20.468 50.633 17.565 55.508 15.53 60.54 14.532 63.045 13.719 65.633 13.653 68.159 13.624 69.404 13.881 70.657 14.61 71.489L14.867 71.759 15.254 72.044C15.385 72.144 15.491 72.161 15.607 72.228 15.713 72.29 15.838 72.34 15.98 72.374 16.508 72.57 17.104 72.589 17.686 72.598 20.068 72.479 22.354 71.502 24.433 70.484A55 55 0 0 0 30.271 67.029C33.887 64.582 36.995 62.03 39.674 59.692A118 118 0 0 0 46.367 53.358C48.163 51.539 49.519 50.056 50.446 49.048zM51.925 47.55L50.54 49.132C49.625 50.153 48.287 51.655 46.513 53.5A159 159 0 0 1 39.928 59.976C37.299 62.388 34.247 65.029 30.661 67.593 28.863 68.866 26.936 70.13 24.814 71.234 22.688 72.304 20.385 73.366 17.718 73.547 17.051 73.549 16.359 73.538 15.68 73.305 15.354 73.235 14.962 73.012 14.67 72.847L14.278 72.567C14.077 72.4 14.001 72.292 13.858 72.15 12.876 71.015 12.628 69.505 12.652 68.149 12.731 65.382 13.586 62.739 14.604 60.171 16.69 55.032 19.606 50.108 22.868 45.344 26.136 40.579 29.778 35.97 33.653 31.573 37.526 27.174 41.637 22.981 45.948 19.142 50.263 15.317 54.754 11.783 59.558 9.061 61.959 7.723 64.459 6.543 67.136 6.114 68.455 5.918 69.912 5.97 71.098 6.755 72.278 7.521 72.766 8.95 72.882 10.206 73.057 12.799 72.327 15.212 71.556 17.445 70.747 19.679 69.781 21.761 68.771 23.712 66.735 27.607 64.56 31.001 62.555 33.947A136 136 0 0 1 57.072 41.373C55.489 43.384 54.185 44.916 53.3 45.962z" fill="black"></path></g></g><circle stroke="url(#bb396157-db1a-4e4d-93e1-eb8b74aab18b)" stroke-miterlimit="10" cx="30.609" cy="3.02" r="2.5" fill="black"></circle><circle stroke="url(#bb396157-db1a-4e4d-93e1-eb8b74aab18b)" stroke-miterlimit="10" cx="24.118" cy="71.052" r="2.5" fill="black"></circle><circle stroke="url(#bb396157-db1a-4e4d-93e1-eb8b74aab18b)" stroke-miterlimit="10" cx="83.864" cy="43.154" r="2.5" fill="black"></circle><circle stroke="url(#bb396157-db1a-4e4d-93e1-eb8b74aab18b)" stroke-miterlimit="10" cx="46.921" cy="41.058" r="2.5" fill="black"></circle><circle stroke="url(#bb396157-db1a-4e4d-93e1-eb8b74aab18b)" stroke-miterlimit="10" cx="40.373" cy="39.129" r="2.5" fill="black"></circle><circle stroke="url(#bb396157-db1a-4e4d-93e1-eb8b74aab18b)" stroke-miterlimit="10" cx="46.883" cy="34.472" r="2.5" fill="black"></circle></g></svg></g></svg></g><g></g></svg></g><defs><mask></mask></defs></svg><rect width="241.5264408203009" height="247.2" fill="black" stroke="none" visibility="hidden"></rect></g></mask></svg><rect width="241.5264408203009" height="247.2" fill="black" stroke="none" visibility="hidden"></rect></g></mask><linearGradient x1="0" x2="1" y1="0.578" y2="0.595" id="466a2c5b-50b4-4736-81c9-7592289bca69"><stop stop-color="#6ee2f5" offset="0"></stop><stop stop-color="#6454f0" offset="1"></stop></linearGradient><rect width="241.5264408203009" height="247.2" fill="url(#466a2c5b-50b4-4736-81c9-7592289bca69)" mask="url(#fdf2d5ff-ca20-41c9-ab7e-7a0aa18b7599)" data-fill-palette-color="secondary"></rect><mask id="6b0a1d76-2a18-441e-a098-66453414f77f"><g id="SvgjsG2740"><svg viewBox="0 0 241.5264408203009 247.2" height="247.2" width="241.5264408203009"><g><svg viewBox="0 0 395.5199999999999 404.81093361013893" height="247.2" width="241.5264408203009"><g transform="matrix(1,0,0,1,0,223.15203179785874)"><svg viewBox="0 0 395.5199999999999 181.65890181228022" height="181.65890181228022" width="395.5199999999999"><g id="SvgjsG2739"><svg viewBox="0 0 395.5199999999999 181.65890181228022" height="181.65890181228022" width="395.5199999999999" id="SvgjsSvg2738"><g><svg viewBox="0 0 395.5199999999999 181.65890181228022" height="181.65890181228022" width="395.5199999999999"><g transform="matrix(1,0,0,1,0,0)"><svg width="395.5199999999999" viewBox="82.63 -37.45 184.85000000000002 80.5" height="181.65890181228022" data-palette-color="url(#ff2f2f7f-924a-452a-9bc3-f4846e0810c8)"><svg></svg><svg></svg><g class="wordmark-text-0" data-fill-palette-color="primary" id="SvgjsG2737"></g></svg></g></svg></g></svg></g></svg></g><g transform="matrix(1,0,0,1,75.54432,0)"><svg viewBox="0 0 244.43135999999993 203.22476021514842" height="203.22476021514842" width="244.43135999999993"><g><svg xmlns="http://www.w3.org/2000/svg" xmlns:xlink="http://www.w3.org/1999/xlink" version="1.1" x="8" y="0" viewBox="0.4 0.2477790963781455 86.692 77.12584170829982" enable-background="new 0 0 87.142 77.878" xml:space="preserve" id="SvgjsSvg2736" width="228.43135999999993" height="203.22476021514842" class="icon-icon-0" data-fill-palette-color="accent"><g fill="white"><g fill="white"><g fill="white"><path d="M87.092 38.679L87.044 39.216C87.025 39.392 86.946 39.608 86.882 39.866 86.776 40.106 86.674 40.401 86.482 40.689 85.784 41.899 84.174 43.231 81.896 44.401 77.313 46.746 70.135 48.571 61.437 49.703 52.731 50.818 42.44 51.236 31.485 50.374 26.012 49.934 20.365 49.181 14.746 47.802 11.944 47.092 9.138 46.242 6.464 44.988 5.132 44.357 3.826 43.624 2.662 42.655 1.526 41.71 0.438 40.363 0.4 38.677L0.449 38.095C0.473 37.907 0.545 37.687 0.596 37.485 0.732 37.092 0.885 36.725 1.11 36.4 1.52 35.722 2.07 35.173 2.642 34.676 3.803 33.695 5.107 32.952 6.438 32.309 9.11 31.033 11.915 30.161 14.717 29.43 20.335 27.999 25.991 27.235 31.47 26.775 36.952 26.331 42.276 26.173 47.31 26.332 52.351 26.474 57.106 26.848 61.463 27.452 70.175 28.625 77.326 30.586 81.912 32.924 84.188 34.105 85.795 35.445 86.49 36.661 87.222 37.868 87.042 38.704 87.092 38.679M86.992 38.674C86.942 38.697 87.11 37.893 86.381 36.725 85.69 35.55 84.09 34.245 81.819 33.104 77.251 30.806 70.061 29.088 61.379 28.13 57.032 27.663 52.299 27.345 47.292 27.279 42.281 27.22 36.995 27.302 31.551 27.763 26.111 28.214 20.505 28.991 14.947 30.34 12.179 31.038 9.41 31.877 6.812 33.093 5.519 33.703 4.264 34.411 3.184 35.309 2.11 36.202 1.232 37.354 1.2 38.677 1.214 39.982 2.096 41.176 3.163 42.067 4.239 42.976 5.493 43.695 6.785 44.316 9.38 45.554 12.148 46.415 14.916 47.134 20.472 48.535 26.088 49.323 31.534 49.795 36.983 50.269 42.282 50.391 47.296 50.318 52.313 50.245 57.053 49.929 61.403 49.421 70.099 48.422 77.263 46.568 81.833 44.277 84.103 43.125 85.7 41.812 86.388 40.631 87.113 39.463 86.942 38.657 86.992 38.674" fill="white"></path><path d="M54.308 32.951L53.277 31.121C52.591 29.936 51.589 28.194 50.231 26.027A136 136 0 0 0 45.094 18.371C43.005 15.491 40.54 12.307 37.537 9.12 36.035 7.53 34.396 5.94 32.572 4.454 30.744 3.005 28.713 1.545 26.341 0.896 25.171 0.613 23.862 0.611 22.883 1.367 21.934 2.077 21.399 3.317 21.163 4.563 20.69 7.102 20.948 9.816 21.399 12.489 22.34 17.86 24.149 23.246 26.293 28.563 28.451 33.88 31.011 39.138 33.839 44.232 36.679 49.332 39.788 54.272 43.164 58.909 46.552 63.525 50.142 67.917 54.177 71.549 56.19 73.342 58.346 74.99 60.697 75.915 61.858 76.367 63.123 76.554 64.153 76.152L64.494 76.003 64.894 75.736C65.033 75.647 65.085 75.553 65.187 75.467 65.281 75.388 65.371 75.288 65.452 75.166 65.816 74.737 66.038 74.183 66.245 73.639 66.946 71.359 66.809 68.877 66.562 66.575A55 55 0 0 0 65.309 59.908C64.244 55.673 62.906 51.881 61.624 48.565A119 119 0 0 0 57.956 40.111C56.86 37.802 55.929 36.021 55.298 34.805zM54.396 32.903L55.41 34.745C56.057 35.953 57.012 37.724 58.14 40.022A158 158 0 0 1 61.978 48.423C63.347 51.717 64.787 55.488 65.973 59.734 66.556 61.858 67.086 64.101 67.399 66.473 67.679 68.836 67.89 71.363 67.15 73.933 66.924 74.561 66.677 75.207 66.227 75.766 66.05 76.049 65.706 76.34 65.452 76.559L65.056 76.832C64.831 76.964 64.703 76.998 64.521 77.084 63.119 77.619 61.615 77.337 60.349 76.851 57.776 75.832 55.583 74.126 53.517 72.292 49.4 68.577 45.767 64.154 42.403 59.462 39.041 54.764 35.951 49.764 33.144 44.625 30.33 39.477 27.795 34.186 25.658 28.822 23.536 23.46 21.749 18.032 20.831 12.587 20.394 9.873 20.138 7.12 20.65 4.458 20.916 3.151 21.463 1.8 22.605 0.953 23.728 0.105 25.238 0.135 26.458 0.455 28.955 1.176 30.974 2.686 32.809 4.173 34.633 5.697 36.259 7.315 37.748 8.93 40.714 12.174 43.16 15.377 45.245 18.268A136 136 0 0 1 50.352 25.957C51.702 28.132 52.696 29.88 53.377 31.07z" fill="white"></path><path d="M51.85 47.484L53.218 45.89C54.098 44.84 55.393 43.304 56.965 41.287A135 135 0 0 0 62.407 33.844C64.401 30.897 66.551 27.493 68.522 23.582 69.503 21.627 70.438 19.544 71.212 17.322 71.95 15.109 72.628 12.702 72.428 10.25 72.294 9.054 71.85 7.823 70.805 7.161 69.814 6.512 68.466 6.432 67.214 6.636 64.666 7.058 62.203 8.228 59.845 9.565 55.118 12.283 50.674 15.823 46.409 19.654 42.147 23.499 38.083 27.698 34.257 32.099 30.437 36.506 26.853 41.118 23.649 45.873 20.468 50.633 17.565 55.508 15.53 60.54 14.532 63.045 13.719 65.633 13.653 68.159 13.624 69.404 13.881 70.657 14.61 71.489L14.867 71.759 15.254 72.044C15.385 72.144 15.491 72.161 15.607 72.228 15.713 72.29 15.838 72.34 15.98 72.374 16.508 72.57 17.104 72.589 17.686 72.598 20.068 72.479 22.354 71.502 24.433 70.484A55 55 0 0 0 30.271 67.029C33.887 64.582 36.995 62.03 39.674 59.692A118 118 0 0 0 46.367 53.358C48.163 51.539 49.519 50.056 50.446 49.048zM51.925 47.55L50.54 49.132C49.625 50.153 48.287 51.655 46.513 53.5A159 159 0 0 1 39.928 59.976C37.299 62.388 34.247 65.029 30.661 67.593 28.863 68.866 26.936 70.13 24.814 71.234 22.688 72.304 20.385 73.366 17.718 73.547 17.051 73.549 16.359 73.538 15.68 73.305 15.354 73.235 14.962 73.012 14.67 72.847L14.278 72.567C14.077 72.4 14.001 72.292 13.858 72.15 12.876 71.015 12.628 69.505 12.652 68.149 12.731 65.382 13.586 62.739 14.604 60.171 16.69 55.032 19.606 50.108 22.868 45.344 26.136 40.579 29.778 35.97 33.653 31.573 37.526 27.174 41.637 22.981 45.948 19.142 50.263 15.317 54.754 11.783 59.558 9.061 61.959 7.723 64.459 6.543 67.136 6.114 68.455 5.918 69.912 5.97 71.098 6.755 72.278 7.521 72.766 8.95 72.882 10.206 73.057 12.799 72.327 15.212 71.556 17.445 70.747 19.679 69.781 21.761 68.771 23.712 66.735 27.607 64.56 31.001 62.555 33.947A136 136 0 0 1 57.072 41.373C55.489 43.384 54.185 44.916 53.3 45.962z" fill="white"></path></g></g><circle stroke="url(#bb396157-db1a-4e4d-93e1-eb8b74aab18b)" stroke-miterlimit="10" cx="30.609" cy="3.02" r="2.5" fill="white"></circle><circle stroke="url(#bb396157-db1a-4e4d-93e1-eb8b74aab18b)" stroke-miterlimit="10" cx="24.118" cy="71.052" r="2.5" fill="white"></circle><circle stroke="url(#bb396157-db1a-4e4d-93e1-eb8b74aab18b)" stroke-miterlimit="10" cx="83.864" cy="43.154" r="2.5" fill="white"></circle><circle stroke="url(#bb396157-db1a-4e4d-93e1-eb8b74aab18b)" stroke-miterlimit="10" cx="46.921" cy="41.058" r="2.5" fill="white"></circle><circle stroke="url(#bb396157-db1a-4e4d-93e1-eb8b74aab18b)" stroke-miterlimit="10" cx="40.373" cy="39.129" r="2.5" fill="white"></circle><circle stroke="url(#bb396157-db1a-4e4d-93e1-eb8b74aab18b)" stroke-miterlimit="10" cx="46.883" cy="34.472" r="2.5" fill="white"></circle></g></svg></g></svg></g><g></g></svg></g><defs><mask></mask></defs><mask><g id="SvgjsG2735"><svg viewBox="0 0 241.5264408203009 247.2" height="247.2" width="241.5264408203009"><g><svg viewBox="0 0 395.5199999999999 404.81093361013893" height="247.2" width="241.5264408203009"><g transform="matrix(1,0,0,1,0,223.15203179785874)"><svg viewBox="0 0 395.5199999999999 181.65890181228022" height="181.65890181228022" width="395.5199999999999"><g id="SvgjsG2734"><svg viewBox="0 0 395.5199999999999 181.65890181228022" height="181.65890181228022" width="395.5199999999999" id="SvgjsSvg2733"><g><svg viewBox="0 0 395.5199999999999 181.65890181228022" height="181.65890181228022" width="395.5199999999999"><g transform="matrix(1,0,0,1,0,0)"><svg width="395.5199999999999" viewBox="82.63 -37.45 184.85000000000002 80.5" height="181.65890181228022" data-palette-color="url(#ff2f2f7f-924a-452a-9bc3-f4846e0810c8)"><svg></svg><svg></svg><g class="wordmark-text-0" data-fill-palette-color="primary" id="SvgjsG2732"><path transform="translate(79.33,0)" d="M28.5-34.45l-3.4 24.6c-0.433 3.067-1.733 5.573-3.9 7.52-2.167 1.953-4.95 2.93-8.35 2.93v0c-3.067 0-5.423-0.843-7.07-2.53-1.653-1.68-2.48-3.853-2.48-6.52v0c0-0.767 0.033-1.35 0.1-1.75v0l3.45-24.25h4.5l-3.4 24.35c-0.067 0.4-0.1 0.95-0.1 1.65v0c0 3.467 1.767 5.2 5.3 5.2v0c2.167 0 3.883-0.633 5.15-1.9 1.267-1.267 2.05-3.017 2.35-5.25v0l3.35-24.05zM46.85-26.95c1.733 0 3.117 0.567 4.15 1.7 1.033 1.133 1.55 2.683 1.55 4.65v0c0 0.6-0.05 1.2-0.15 1.8v0l-2.65 18.8h-4.35l2.65-18.75c0.067-0.667 0.1-1.133 0.1-1.4v0c0-2.067-0.833-3.1-2.5-3.1v0c-2.333 0-4.8 2.4-7.4 7.2v0l-2.25 16.05h-4.35l3.7-26.35h3.75l-0.4 5c1.2-1.8 2.45-3.183 3.75-4.15 1.3-0.967 2.767-1.45 4.4-1.45zM67.35-37.45l-2.2 15.75c2.233-3.467 4.933-5.2 8.1-5.2v0c1.767 0 3.2 0.533 4.3 1.6 1.1 1.067 1.65 2.467 1.65 4.2v0c0 2.067-0.64 3.883-1.92 5.45-1.287 1.567-3.197 2.867-5.73 3.9v0l5.2 11.75h-4.75l-5.4-12.85c2.867-0.833 4.927-1.867 6.18-3.1 1.247-1.233 1.87-2.8 1.87-4.7v0c0-0.9-0.227-1.593-0.68-2.08-0.447-0.48-1.087-0.72-1.92-0.72v0c-1.3 0-2.64 0.657-4.02 1.97-1.387 1.32-2.63 3.23-3.73 5.73v0l-2.2 15.75h-4.35l5.2-36.95zM97.7-26.95c1.733 0 3.117 0.567 4.15 1.7 1.033 1.133 1.55 2.683 1.55 4.65v0c0 0.6-0.05 1.2-0.15 1.8v0l-2.65 18.8h-4.35l2.65-18.75c0.067-0.667 0.1-1.133 0.1-1.4v0c0-2.067-0.833-3.1-2.5-3.1v0c-2.333 0-4.8 2.4-7.4 7.2v0l-2.25 16.05h-4.35l3.7-26.35h3.75l-0.4 5c1.2-1.8 2.45-3.183 3.75-4.15 1.3-0.967 2.767-1.45 4.4-1.45zM117.55 0.6c-2.867 0-5.077-0.917-6.63-2.75-1.547-1.833-2.32-4.35-2.32-7.55v0c0-2.6 0.433-5.217 1.3-7.85 0.867-2.633 2.257-4.85 4.17-6.65 1.92-1.8 4.363-2.7 7.33-2.7v0c2.833 0 5.023 0.907 6.57 2.72 1.553 1.82 2.33 4.33 2.33 7.53v0c0 2.567-0.423 5.173-1.27 7.82-0.853 2.653-2.237 4.887-4.15 6.7-1.92 1.82-4.363 2.73-7.33 2.73zM117.7-2.95c1.967 0 3.55-0.767 4.75-2.3 1.2-1.533 2.057-3.383 2.57-5.55 0.52-2.167 0.78-4.267 0.78-6.3v0c0-4.167-1.533-6.25-4.6-6.25v0c-1.967 0-3.55 0.757-4.75 2.27-1.2 1.52-2.057 3.353-2.57 5.5-0.52 2.153-0.78 4.263-0.78 6.33v0c0 4.2 1.533 6.3 4.6 6.3zM161.65-26.35h4.2l-8.95 26.35h-5.75l-1-22.4-7.35 22.4h-5.6l-1.75-26.35h4.25l0.85 23.25 7.8-23.25h4.85l1.1 23.25zM182.45-26.95c1.733 0 3.117 0.567 4.15 1.7 1.033 1.133 1.55 2.683 1.55 4.65v0c0 0.6-0.05 1.2-0.15 1.8v0l-2.65 18.8h-4.35l2.65-18.75c0.067-0.667 0.1-1.133 0.1-1.4v0c0-2.067-0.833-3.1-2.5-3.1v0c-2.333 0-4.8 2.4-7.4 7.2v0l-2.25 16.05h-4.35l3.7-26.35h3.75l-0.4 5c1.2-1.8 2.45-3.183 3.75-4.15 1.3-0.967 2.767-1.45 4.4-1.45z" fill="black" fill-rule="nonzero" stroke="none" stroke-width="1" stroke-linecap="butt" stroke-linejoin="miter" stroke-miterlimit="10" stroke-dasharray="" stroke-dashoffset="0" font-family="none" font-weight="none" font-size="none" text-anchor="none" style="mix-blend-mode: normal" opacity="1"></path><path transform="translate(85.88,42.45)" d="M28.5-34.45l-3.4 24.6c-0.433 3.067-1.733 5.573-3.9 7.52-2.167 1.953-4.95 2.93-8.35 2.93v0c-3.067 0-5.423-0.843-7.07-2.53-1.653-1.68-2.48-3.853-2.48-6.52v0c0-0.767 0.033-1.35 0.1-1.75v0l3.45-24.25h4.5l-3.4 24.35c-0.067 0.4-0.1 0.95-0.1 1.65v0c0 3.467 1.767 5.2 5.3 5.2v0c2.167 0 3.883-0.633 5.15-1.9 1.267-1.267 2.05-3.017 2.35-5.25v0l3.35-24.05zM46.85-26.95c1.733 0 3.117 0.567 4.15 1.7 1.033 1.133 1.55 2.683 1.55 4.65v0c0 0.6-0.05 1.2-0.15 1.8v0l-2.65 18.8h-4.35l2.65-18.75c0.067-0.667 0.1-1.133 0.1-1.4v0c0-2.067-0.833-3.1-2.5-3.1v0c-2.333 0-4.8 2.4-7.4 7.2v0l-2.25 16.05h-4.35l3.7-26.35h3.75l-0.4 5c1.2-1.8 2.45-3.183 3.75-4.15 1.3-0.967 2.767-1.45 4.4-1.45zM61.45-26.35h4.35l-3.7 26.35h-4.35zM64.55-32.85c-0.833 0-1.5-0.25-2-0.75-0.5-0.5-0.75-1.15-0.75-1.95v0c0-0.967 0.317-1.76 0.95-2.38 0.633-0.613 1.4-0.92 2.3-0.92v0c0.833 0 1.5 0.25 2 0.75 0.5 0.5 0.75 1.15 0.75 1.95v0c0 0.967-0.317 1.76-0.95 2.38-0.633 0.613-1.4 0.92-2.3 0.92zM86.95-26.35h4.7l-11.65 26.35h-5.2l-4.35-26.35h4.7l2.8 22.4zM112.9-20.35c0 3.4-1.393 5.85-4.18 7.35-2.78 1.5-6.67 2.55-11.67 3.15v0 0.3c0 4.3 1.617 6.45 4.85 6.45v0c1.1 0 2.15-0.193 3.15-0.58 1-0.38 2.067-0.97 3.2-1.77v0l1.85 2.9c-2.767 2.1-5.65 3.15-8.65 3.15v0c-2.833 0-5.023-0.893-6.57-2.68-1.553-1.78-2.33-4.253-2.33-7.42v0c0-2.767 0.443-5.483 1.33-8.15 0.88-2.667 2.287-4.877 4.22-6.63 1.933-1.747 4.35-2.62 7.25-2.62v0c2.4 0 4.257 0.623 5.57 1.87 1.32 1.253 1.98 2.813 1.98 4.68zM105.15-23.4c-2.267 0-4.04 0.983-5.32 2.95-1.287 1.967-2.13 4.383-2.53 7.25v0c3.833-0.467 6.65-1.21 8.45-2.23 1.8-1.013 2.7-2.603 2.7-4.77v0c0-0.933-0.267-1.7-0.8-2.3-0.533-0.6-1.367-0.9-2.5-0.9zM130.4-26.9c0.733 0 1.517 0.117 2.35 0.35v0l-1.35 4.2c-0.733-0.167-1.383-0.25-1.95-0.25v0c-1.467 0-2.757 0.723-3.87 2.17-1.12 1.453-2.13 3.563-3.03 6.33v0l-1.95 14.1h-4.35l3.7-26.35h3.75l-0.35 5.1c0.9-1.867 1.933-3.277 3.1-4.23 1.167-0.947 2.483-1.42 3.95-1.42zM143.55-26.9c3.1 0 5.75 1.067 7.95 3.2v0l-2.15 2.55c-1.8-1.5-3.733-2.25-5.8-2.25v0c-1.433 0-2.573 0.333-3.42 1-0.853 0.667-1.28 1.6-1.28 2.8v0c0 0.933 0.35 1.693 1.05 2.28 0.7 0.58 1.917 1.187 3.65 1.82v0c2.167 0.767 3.767 1.733 4.8 2.9 1.033 1.167 1.55 2.7 1.55 4.6v0c0 1.767-0.45 3.3-1.35 4.6-0.9 1.3-2.123 2.29-3.67 2.97-1.553 0.687-3.247 1.03-5.08 1.03v0c-3.567 0-6.533-1.25-8.9-3.75v0l2.5-2.55c2 1.833 4.183 2.75 6.55 2.75v0c1.833 0 3.193-0.477 4.08-1.43 0.88-0.947 1.32-2.02 1.32-3.22v0c0-1.233-0.34-2.177-1.02-2.83-0.687-0.647-1.963-1.303-3.83-1.97v0c-2.167-0.8-3.723-1.733-4.67-2.8-0.953-1.067-1.43-2.45-1.43-4.15v0c0-1.3 0.367-2.527 1.1-3.68 0.733-1.147 1.793-2.08 3.18-2.8 1.38-0.713 3.003-1.07 4.87-1.07zM175.05-20.35c0 3.4-1.39 5.85-4.17 7.35-2.787 1.5-6.68 2.55-11.68 3.15v0 0.3c0 4.3 1.617 6.45 4.85 6.45v0c1.1 0 2.15-0.193 3.15-0.58 1-0.38 2.067-0.97 3.2-1.77v0l1.85 2.9c-2.767 2.1-5.65 3.15-8.65 3.15v0c-2.833 0-5.023-0.893-6.57-2.68-1.553-1.78-2.33-4.253-2.33-7.42v0c0-2.767 0.443-5.483 1.33-8.15 0.88-2.667 2.287-4.877 4.22-6.63 1.933-1.747 4.35-2.62 7.25-2.62v0c2.4 0 4.26 0.623 5.58 1.87 1.313 1.253 1.97 2.813 1.97 4.68zM167.3-23.4c-2.267 0-4.04 0.983-5.32 2.95-1.287 1.967-2.13 4.383-2.53 7.25v0c3.833-0.467 6.65-1.21 8.45-2.23 1.8-1.013 2.7-2.603 2.7-4.77v0c0-0.933-0.267-1.7-0.8-2.3-0.533-0.6-1.367-0.9-2.5-0.9z" fill="black" fill-rule="nonzero" stroke="none" stroke-width="1" stroke-linecap="butt" stroke-linejoin="miter" stroke-miterlimit="10" stroke-dasharray="" stroke-dashoffset="0" font-family="none" font-weight="none" font-size="none" text-anchor="none" style="mix-blend-mode: normal" opacity="1"></path></g></svg></g></svg></g></svg></g></svg></g><g transform="matrix(1,0,0,1,75.54432,0)"><svg viewBox="0 0 244.43135999999993 203.22476021514842" height="203.22476021514842" width="244.43135999999993"><g><svg xmlns="http://www.w3.org/2000/svg" xmlns:xlink="http://www.w3.org/1999/xlink" version="1.1" x="8" y="0" viewBox="0.4 0.2477790963781455 86.692 77.12584170829982" enable-background="new 0 0 87.142 77.878" xml:space="preserve" id="SvgjsSvg2731" width="228.43135999999993" height="203.22476021514842" class="icon-icon-0" data-fill-palette-color="accent"><g fill="black"><g fill="black"><g fill="black"><path d="M87.092 38.679L87.044 39.216C87.025 39.392 86.946 39.608 86.882 39.866 86.776 40.106 86.674 40.401 86.482 40.689 85.784 41.899 84.174 43.231 81.896 44.401 77.313 46.746 70.135 48.571 61.437 49.703 52.731 50.818 42.44 51.236 31.485 50.374 26.012 49.934 20.365 49.181 14.746 47.802 11.944 47.092 9.138 46.242 6.464 44.988 5.132 44.357 3.826 43.624 2.662 42.655 1.526 41.71 0.438 40.363 0.4 38.677L0.449 38.095C0.473 37.907 0.545 37.687 0.596 37.485 0.732 37.092 0.885 36.725 1.11 36.4 1.52 35.722 2.07 35.173 2.642 34.676 3.803 33.695 5.107 32.952 6.438 32.309 9.11 31.033 11.915 30.161 14.717 29.43 20.335 27.999 25.991 27.235 31.47 26.775 36.952 26.331 42.276 26.173 47.31 26.332 52.351 26.474 57.106 26.848 61.463 27.452 70.175 28.625 77.326 30.586 81.912 32.924 84.188 34.105 85.795 35.445 86.49 36.661 87.222 37.868 87.042 38.704 87.092 38.679M86.992 38.674C86.942 38.697 87.11 37.893 86.381 36.725 85.69 35.55 84.09 34.245 81.819 33.104 77.251 30.806 70.061 29.088 61.379 28.13 57.032 27.663 52.299 27.345 47.292 27.279 42.281 27.22 36.995 27.302 31.551 27.763 26.111 28.214 20.505 28.991 14.947 30.34 12.179 31.038 9.41 31.877 6.812 33.093 5.519 33.703 4.264 34.411 3.184 35.309 2.11 36.202 1.232 37.354 1.2 38.677 1.214 39.982 2.096 41.176 3.163 42.067 4.239 42.976 5.493 43.695 6.785 44.316 9.38 45.554 12.148 46.415 14.916 47.134 20.472 48.535 26.088 49.323 31.534 49.795 36.983 50.269 42.282 50.391 47.296 50.318 52.313 50.245 57.053 49.929 61.403 49.421 70.099 48.422 77.263 46.568 81.833 44.277 84.103 43.125 85.7 41.812 86.388 40.631 87.113 39.463 86.942 38.657 86.992 38.674" fill="black"></path><path d="M54.308 32.951L53.277 31.121C52.591 29.936 51.589 28.194 50.231 26.027A136 136 0 0 0 45.094 18.371C43.005 15.491 40.54 12.307 37.537 9.12 36.035 7.53 34.396 5.94 32.572 4.454 30.744 3.005 28.713 1.545 26.341 0.896 25.171 0.613 23.862 0.611 22.883 1.367 21.934 2.077 21.399 3.317 21.163 4.563 20.69 7.102 20.948 9.816 21.399 12.489 22.34 17.86 24.149 23.246 26.293 28.563 28.451 33.88 31.011 39.138 33.839 44.232 36.679 49.332 39.788 54.272 43.164 58.909 46.552 63.525 50.142 67.917 54.177 71.549 56.19 73.342 58.346 74.99 60.697 75.915 61.858 76.367 63.123 76.554 64.153 76.152L64.494 76.003 64.894 75.736C65.033 75.647 65.085 75.553 65.187 75.467 65.281 75.388 65.371 75.288 65.452 75.166 65.816 74.737 66.038 74.183 66.245 73.639 66.946 71.359 66.809 68.877 66.562 66.575A55 55 0 0 0 65.309 59.908C64.244 55.673 62.906 51.881 61.624 48.565A119 119 0 0 0 57.956 40.111C56.86 37.802 55.929 36.021 55.298 34.805zM54.396 32.903L55.41 34.745C56.057 35.953 57.012 37.724 58.14 40.022A158 158 0 0 1 61.978 48.423C63.347 51.717 64.787 55.488 65.973 59.734 66.556 61.858 67.086 64.101 67.399 66.473 67.679 68.836 67.89 71.363 67.15 73.933 66.924 74.561 66.677 75.207 66.227 75.766 66.05 76.049 65.706 76.34 65.452 76.559L65.056 76.832C64.831 76.964 64.703 76.998 64.521 77.084 63.119 77.619 61.615 77.337 60.349 76.851 57.776 75.832 55.583 74.126 53.517 72.292 49.4 68.577 45.767 64.154 42.403 59.462 39.041 54.764 35.951 49.764 33.144 44.625 30.33 39.477 27.795 34.186 25.658 28.822 23.536 23.46 21.749 18.032 20.831 12.587 20.394 9.873 20.138 7.12 20.65 4.458 20.916 3.151 21.463 1.8 22.605 0.953 23.728 0.105 25.238 0.135 26.458 0.455 28.955 1.176 30.974 2.686 32.809 4.173 34.633 5.697 36.259 7.315 37.748 8.93 40.714 12.174 43.16 15.377 45.245 18.268A136 136 0 0 1 50.352 25.957C51.702 28.132 52.696 29.88 53.377 31.07z" fill="black"></path><path d="M51.85 47.484L53.218 45.89C54.098 44.84 55.393 43.304 56.965 41.287A135 135 0 0 0 62.407 33.844C64.401 30.897 66.551 27.493 68.522 23.582 69.503 21.627 70.438 19.544 71.212 17.322 71.95 15.109 72.628 12.702 72.428 10.25 72.294 9.054 71.85 7.823 70.805 7.161 69.814 6.512 68.466 6.432 67.214 6.636 64.666 7.058 62.203 8.228 59.845 9.565 55.118 12.283 50.674 15.823 46.409 19.654 42.147 23.499 38.083 27.698 34.257 32.099 30.437 36.506 26.853 41.118 23.649 45.873 20.468 50.633 17.565 55.508 15.53 60.54 14.532 63.045 13.719 65.633 13.653 68.159 13.624 69.404 13.881 70.657 14.61 71.489L14.867 71.759 15.254 72.044C15.385 72.144 15.491 72.161 15.607 72.228 15.713 72.29 15.838 72.34 15.98 72.374 16.508 72.57 17.104 72.589 17.686 72.598 20.068 72.479 22.354 71.502 24.433 70.484A55 55 0 0 0 30.271 67.029C33.887 64.582 36.995 62.03 39.674 59.692A118 118 0 0 0 46.367 53.358C48.163 51.539 49.519 50.056 50.446 49.048zM51.925 47.55L50.54 49.132C49.625 50.153 48.287 51.655 46.513 53.5A159 159 0 0 1 39.928 59.976C37.299 62.388 34.247 65.029 30.661 67.593 28.863 68.866 26.936 70.13 24.814 71.234 22.688 72.304 20.385 73.366 17.718 73.547 17.051 73.549 16.359 73.538 15.68 73.305 15.354 73.235 14.962 73.012 14.67 72.847L14.278 72.567C14.077 72.4 14.001 72.292 13.858 72.15 12.876 71.015 12.628 69.505 12.652 68.149 12.731 65.382 13.586 62.739 14.604 60.171 16.69 55.032 19.606 50.108 22.868 45.344 26.136 40.579 29.778 35.97 33.653 31.573 37.526 27.174 41.637 22.981 45.948 19.142 50.263 15.317 54.754 11.783 59.558 9.061 61.959 7.723 64.459 6.543 67.136 6.114 68.455 5.918 69.912 5.97 71.098 6.755 72.278 7.521 72.766 8.95 72.882 10.206 73.057 12.799 72.327 15.212 71.556 17.445 70.747 19.679 69.781 21.761 68.771 23.712 66.735 27.607 64.56 31.001 62.555 33.947A136 136 0 0 1 57.072 41.373C55.489 43.384 54.185 44.916 53.3 45.962z" fill="black"></path></g></g><circle stroke="url(#bb396157-db1a-4e4d-93e1-eb8b74aab18b)" stroke-miterlimit="10" cx="30.609" cy="3.02" r="2.5" fill="black"></circle><circle stroke="url(#bb396157-db1a-4e4d-93e1-eb8b74aab18b)" stroke-miterlimit="10" cx="24.118" cy="71.052" r="2.5" fill="black"></circle><circle stroke="url(#bb396157-db1a-4e4d-93e1-eb8b74aab18b)" stroke-miterlimit="10" cx="83.864" cy="43.154" r="2.5" fill="black"></circle><circle stroke="url(#bb396157-db1a-4e4d-93e1-eb8b74aab18b)" stroke-miterlimit="10" cx="46.921" cy="41.058" r="2.5" fill="black"></circle><circle stroke="url(#bb396157-db1a-4e4d-93e1-eb8b74aab18b)" stroke-miterlimit="10" cx="40.373" cy="39.129" r="2.5" fill="black"></circle><circle stroke="url(#bb396157-db1a-4e4d-93e1-eb8b74aab18b)" stroke-miterlimit="10" cx="46.883" cy="34.472" r="2.5" fill="black"></circle></g></svg></g></svg></g><g></g></svg></g><defs><mask></mask></defs></svg><rect width="241.5264408203009" height="247.2" fill="black" stroke="none" visibility="hidden"></rect></g></mask><mask><g id="SvgjsG2730"><svg viewBox="0 0 241.5264408203009 247.2" height="247.2" width="241.5264408203009"><g><svg viewBox="0 0 395.5199999999999 404.81093361013893" height="247.2" width="241.5264408203009"><g transform="matrix(1,0,0,1,0,223.15203179785874)"><svg viewBox="0 0 395.5199999999999 181.65890181228022" height="181.65890181228022" width="395.5199999999999"><g id="SvgjsG2729"><svg viewBox="0 0 395.5199999999999 181.65890181228022" height="181.65890181228022" width="395.5199999999999" id="SvgjsSvg2728"><g><svg viewBox="0 0 395.5199999999999 181.65890181228022" height="181.65890181228022" width="395.5199999999999"><g transform="matrix(1,0,0,1,0,0)"><svg width="395.5199999999999" viewBox="82.63 -37.45 184.85000000000002 80.5" height="181.65890181228022" data-palette-color="url(#ff2f2f7f-924a-452a-9bc3-f4846e0810c8)"><svg></svg><svg></svg><g class="wordmark-text-0" data-fill-palette-color="primary" id="SvgjsG2727"><path transform="translate(85.88,42.45)" d="M28.5-34.45l-3.4 24.6c-0.433 3.067-1.733 5.573-3.9 7.52-2.167 1.953-4.95 2.93-8.35 2.93v0c-3.067 0-5.423-0.843-7.07-2.53-1.653-1.68-2.48-3.853-2.48-6.52v0c0-0.767 0.033-1.35 0.1-1.75v0l3.45-24.25h4.5l-3.4 24.35c-0.067 0.4-0.1 0.95-0.1 1.65v0c0 3.467 1.767 5.2 5.3 5.2v0c2.167 0 3.883-0.633 5.15-1.9 1.267-1.267 2.05-3.017 2.35-5.25v0l3.35-24.05zM46.85-26.95c1.733 0 3.117 0.567 4.15 1.7 1.033 1.133 1.55 2.683 1.55 4.65v0c0 0.6-0.05 1.2-0.15 1.8v0l-2.65 18.8h-4.35l2.65-18.75c0.067-0.667 0.1-1.133 0.1-1.4v0c0-2.067-0.833-3.1-2.5-3.1v0c-2.333 0-4.8 2.4-7.4 7.2v0l-2.25 16.05h-4.35l3.7-26.35h3.75l-0.4 5c1.2-1.8 2.45-3.183 3.75-4.15 1.3-0.967 2.767-1.45 4.4-1.45zM61.45-26.35h4.35l-3.7 26.35h-4.35zM64.55-32.85c-0.833 0-1.5-0.25-2-0.75-0.5-0.5-0.75-1.15-0.75-1.95v0c0-0.967 0.317-1.76 0.95-2.38 0.633-0.613 1.4-0.92 2.3-0.92v0c0.833 0 1.5 0.25 2 0.75 0.5 0.5 0.75 1.15 0.75 1.95v0c0 0.967-0.317 1.76-0.95 2.38-0.633 0.613-1.4 0.92-2.3 0.92zM86.95-26.35h4.7l-11.65 26.35h-5.2l-4.35-26.35h4.7l2.8 22.4zM112.9-20.35c0 3.4-1.393 5.85-4.18 7.35-2.78 1.5-6.67 2.55-11.67 3.15v0 0.3c0 4.3 1.617 6.45 4.85 6.45v0c1.1 0 2.15-0.193 3.15-0.58 1-0.38 2.067-0.97 3.2-1.77v0l1.85 2.9c-2.767 2.1-5.65 3.15-8.65 3.15v0c-2.833 0-5.023-0.893-6.57-2.68-1.553-1.78-2.33-4.253-2.33-7.42v0c0-2.767 0.443-5.483 1.33-8.15 0.88-2.667 2.287-4.877 4.22-6.63 1.933-1.747 4.35-2.62 7.25-2.62v0c2.4 0 4.257 0.623 5.57 1.87 1.32 1.253 1.98 2.813 1.98 4.68zM105.15-23.4c-2.267 0-4.04 0.983-5.32 2.95-1.287 1.967-2.13 4.383-2.53 7.25v0c3.833-0.467 6.65-1.21 8.45-2.23 1.8-1.013 2.7-2.603 2.7-4.77v0c0-0.933-0.267-1.7-0.8-2.3-0.533-0.6-1.367-0.9-2.5-0.9zM130.4-26.9c0.733 0 1.517 0.117 2.35 0.35v0l-1.35 4.2c-0.733-0.167-1.383-0.25-1.95-0.25v0c-1.467 0-2.757 0.723-3.87 2.17-1.12 1.453-2.13 3.563-3.03 6.33v0l-1.95 14.1h-4.35l3.7-26.35h3.75l-0.35 5.1c0.9-1.867 1.933-3.277 3.1-4.23 1.167-0.947 2.483-1.42 3.95-1.42zM143.55-26.9c3.1 0 5.75 1.067 7.95 3.2v0l-2.15 2.55c-1.8-1.5-3.733-2.25-5.8-2.25v0c-1.433 0-2.573 0.333-3.42 1-0.853 0.667-1.28 1.6-1.28 2.8v0c0 0.933 0.35 1.693 1.05 2.28 0.7 0.58 1.917 1.187 3.65 1.82v0c2.167 0.767 3.767 1.733 4.8 2.9 1.033 1.167 1.55 2.7 1.55 4.6v0c0 1.767-0.45 3.3-1.35 4.6-0.9 1.3-2.123 2.29-3.67 2.97-1.553 0.687-3.247 1.03-5.08 1.03v0c-3.567 0-6.533-1.25-8.9-3.75v0l2.5-2.55c2 1.833 4.183 2.75 6.55 2.75v0c1.833 0 3.193-0.477 4.08-1.43 0.88-0.947 1.32-2.02 1.32-3.22v0c0-1.233-0.34-2.177-1.02-2.83-0.687-0.647-1.963-1.303-3.83-1.97v0c-2.167-0.8-3.723-1.733-4.67-2.8-0.953-1.067-1.43-2.45-1.43-4.15v0c0-1.3 0.367-2.527 1.1-3.68 0.733-1.147 1.793-2.08 3.18-2.8 1.38-0.713 3.003-1.07 4.87-1.07zM175.05-20.35c0 3.4-1.39 5.85-4.17 7.35-2.787 1.5-6.68 2.55-11.68 3.15v0 0.3c0 4.3 1.617 6.45 4.85 6.45v0c1.1 0 2.15-0.193 3.15-0.58 1-0.38 2.067-0.97 3.2-1.77v0l1.85 2.9c-2.767 2.1-5.65 3.15-8.65 3.15v0c-2.833 0-5.023-0.893-6.57-2.68-1.553-1.78-2.33-4.253-2.33-7.42v0c0-2.767 0.443-5.483 1.33-8.15 0.88-2.667 2.287-4.877 4.22-6.63 1.933-1.747 4.35-2.62 7.25-2.62v0c2.4 0 4.26 0.623 5.58 1.87 1.313 1.253 1.97 2.813 1.97 4.68zM167.3-23.4c-2.267 0-4.04 0.983-5.32 2.95-1.287 1.967-2.13 4.383-2.53 7.25v0c3.833-0.467 6.65-1.21 8.45-2.23 1.8-1.013 2.7-2.603 2.7-4.77v0c0-0.933-0.267-1.7-0.8-2.3-0.533-0.6-1.367-0.9-2.5-0.9z" fill="black" fill-rule="nonzero" stroke="none" stroke-width="1" stroke-linecap="butt" stroke-linejoin="miter" stroke-miterlimit="10" stroke-dasharray="" stroke-dashoffset="0" font-family="none" font-weight="none" font-size="none" text-anchor="none" style="mix-blend-mode: normal" opacity="1"></path></g></svg></g></svg></g></svg></g></svg></g><g transform="matrix(1,0,0,1,75.54432,0)"><svg viewBox="0 0 244.43135999999993 203.22476021514842" height="203.22476021514842" width="244.43135999999993"><g><svg xmlns="http://www.w3.org/2000/svg" xmlns:xlink="http://www.w3.org/1999/xlink" version="1.1" x="8" y="0" viewBox="0.4 0.2477790963781455 86.692 77.12584170829982" enable-background="new 0 0 87.142 77.878" xml:space="preserve" id="SvgjsSvg2726" width="228.43135999999993" height="203.22476021514842" class="icon-icon-0" data-fill-palette-color="accent"><g fill="black"><g fill="black"><g fill="black"><path d="M87.092 38.679L87.044 39.216C87.025 39.392 86.946 39.608 86.882 39.866 86.776 40.106 86.674 40.401 86.482 40.689 85.784 41.899 84.174 43.231 81.896 44.401 77.313 46.746 70.135 48.571 61.437 49.703 52.731 50.818 42.44 51.236 31.485 50.374 26.012 49.934 20.365 49.181 14.746 47.802 11.944 47.092 9.138 46.242 6.464 44.988 5.132 44.357 3.826 43.624 2.662 42.655 1.526 41.71 0.438 40.363 0.4 38.677L0.449 38.095C0.473 37.907 0.545 37.687 0.596 37.485 0.732 37.092 0.885 36.725 1.11 36.4 1.52 35.722 2.07 35.173 2.642 34.676 3.803 33.695 5.107 32.952 6.438 32.309 9.11 31.033 11.915 30.161 14.717 29.43 20.335 27.999 25.991 27.235 31.47 26.775 36.952 26.331 42.276 26.173 47.31 26.332 52.351 26.474 57.106 26.848 61.463 27.452 70.175 28.625 77.326 30.586 81.912 32.924 84.188 34.105 85.795 35.445 86.49 36.661 87.222 37.868 87.042 38.704 87.092 38.679M86.992 38.674C86.942 38.697 87.11 37.893 86.381 36.725 85.69 35.55 84.09 34.245 81.819 33.104 77.251 30.806 70.061 29.088 61.379 28.13 57.032 27.663 52.299 27.345 47.292 27.279 42.281 27.22 36.995 27.302 31.551 27.763 26.111 28.214 20.505 28.991 14.947 30.34 12.179 31.038 9.41 31.877 6.812 33.093 5.519 33.703 4.264 34.411 3.184 35.309 2.11 36.202 1.232 37.354 1.2 38.677 1.214 39.982 2.096 41.176 3.163 42.067 4.239 42.976 5.493 43.695 6.785 44.316 9.38 45.554 12.148 46.415 14.916 47.134 20.472 48.535 26.088 49.323 31.534 49.795 36.983 50.269 42.282 50.391 47.296 50.318 52.313 50.245 57.053 49.929 61.403 49.421 70.099 48.422 77.263 46.568 81.833 44.277 84.103 43.125 85.7 41.812 86.388 40.631 87.113 39.463 86.942 38.657 86.992 38.674" fill="black"></path><path d="M54.308 32.951L53.277 31.121C52.591 29.936 51.589 28.194 50.231 26.027A136 136 0 0 0 45.094 18.371C43.005 15.491 40.54 12.307 37.537 9.12 36.035 7.53 34.396 5.94 32.572 4.454 30.744 3.005 28.713 1.545 26.341 0.896 25.171 0.613 23.862 0.611 22.883 1.367 21.934 2.077 21.399 3.317 21.163 4.563 20.69 7.102 20.948 9.816 21.399 12.489 22.34 17.86 24.149 23.246 26.293 28.563 28.451 33.88 31.011 39.138 33.839 44.232 36.679 49.332 39.788 54.272 43.164 58.909 46.552 63.525 50.142 67.917 54.177 71.549 56.19 73.342 58.346 74.99 60.697 75.915 61.858 76.367 63.123 76.554 64.153 76.152L64.494 76.003 64.894 75.736C65.033 75.647 65.085 75.553 65.187 75.467 65.281 75.388 65.371 75.288 65.452 75.166 65.816 74.737 66.038 74.183 66.245 73.639 66.946 71.359 66.809 68.877 66.562 66.575A55 55 0 0 0 65.309 59.908C64.244 55.673 62.906 51.881 61.624 48.565A119 119 0 0 0 57.956 40.111C56.86 37.802 55.929 36.021 55.298 34.805zM54.396 32.903L55.41 34.745C56.057 35.953 57.012 37.724 58.14 40.022A158 158 0 0 1 61.978 48.423C63.347 51.717 64.787 55.488 65.973 59.734 66.556 61.858 67.086 64.101 67.399 66.473 67.679 68.836 67.89 71.363 67.15 73.933 66.924 74.561 66.677 75.207 66.227 75.766 66.05 76.049 65.706 76.34 65.452 76.559L65.056 76.832C64.831 76.964 64.703 76.998 64.521 77.084 63.119 77.619 61.615 77.337 60.349 76.851 57.776 75.832 55.583 74.126 53.517 72.292 49.4 68.577 45.767 64.154 42.403 59.462 39.041 54.764 35.951 49.764 33.144 44.625 30.33 39.477 27.795 34.186 25.658 28.822 23.536 23.46 21.749 18.032 20.831 12.587 20.394 9.873 20.138 7.12 20.65 4.458 20.916 3.151 21.463 1.8 22.605 0.953 23.728 0.105 25.238 0.135 26.458 0.455 28.955 1.176 30.974 2.686 32.809 4.173 34.633 5.697 36.259 7.315 37.748 8.93 40.714 12.174 43.16 15.377 45.245 18.268A136 136 0 0 1 50.352 25.957C51.702 28.132 52.696 29.88 53.377 31.07z" fill="black"></path><path d="M51.85 47.484L53.218 45.89C54.098 44.84 55.393 43.304 56.965 41.287A135 135 0 0 0 62.407 33.844C64.401 30.897 66.551 27.493 68.522 23.582 69.503 21.627 70.438 19.544 71.212 17.322 71.95 15.109 72.628 12.702 72.428 10.25 72.294 9.054 71.85 7.823 70.805 7.161 69.814 6.512 68.466 6.432 67.214 6.636 64.666 7.058 62.203 8.228 59.845 9.565 55.118 12.283 50.674 15.823 46.409 19.654 42.147 23.499 38.083 27.698 34.257 32.099 30.437 36.506 26.853 41.118 23.649 45.873 20.468 50.633 17.565 55.508 15.53 60.54 14.532 63.045 13.719 65.633 13.653 68.159 13.624 69.404 13.881 70.657 14.61 71.489L14.867 71.759 15.254 72.044C15.385 72.144 15.491 72.161 15.607 72.228 15.713 72.29 15.838 72.34 15.98 72.374 16.508 72.57 17.104 72.589 17.686 72.598 20.068 72.479 22.354 71.502 24.433 70.484A55 55 0 0 0 30.271 67.029C33.887 64.582 36.995 62.03 39.674 59.692A118 118 0 0 0 46.367 53.358C48.163 51.539 49.519 50.056 50.446 49.048zM51.925 47.55L50.54 49.132C49.625 50.153 48.287 51.655 46.513 53.5A159 159 0 0 1 39.928 59.976C37.299 62.388 34.247 65.029 30.661 67.593 28.863 68.866 26.936 70.13 24.814 71.234 22.688 72.304 20.385 73.366 17.718 73.547 17.051 73.549 16.359 73.538 15.68 73.305 15.354 73.235 14.962 73.012 14.67 72.847L14.278 72.567C14.077 72.4 14.001 72.292 13.858 72.15 12.876 71.015 12.628 69.505 12.652 68.149 12.731 65.382 13.586 62.739 14.604 60.171 16.69 55.032 19.606 50.108 22.868 45.344 26.136 40.579 29.778 35.97 33.653 31.573 37.526 27.174 41.637 22.981 45.948 19.142 50.263 15.317 54.754 11.783 59.558 9.061 61.959 7.723 64.459 6.543 67.136 6.114 68.455 5.918 69.912 5.97 71.098 6.755 72.278 7.521 72.766 8.95 72.882 10.206 73.057 12.799 72.327 15.212 71.556 17.445 70.747 19.679 69.781 21.761 68.771 23.712 66.735 27.607 64.56 31.001 62.555 33.947A136 136 0 0 1 57.072 41.373C55.489 43.384 54.185 44.916 53.3 45.962z" fill="black"></path></g></g><circle stroke="url(#bb396157-db1a-4e4d-93e1-eb8b74aab18b)" stroke-miterlimit="10" cx="30.609" cy="3.02" r="2.5" fill="black"></circle><circle stroke="url(#bb396157-db1a-4e4d-93e1-eb8b74aab18b)" stroke-miterlimit="10" cx="24.118" cy="71.052" r="2.5" fill="black"></circle><circle stroke="url(#bb396157-db1a-4e4d-93e1-eb8b74aab18b)" stroke-miterlimit="10" cx="83.864" cy="43.154" r="2.5" fill="black"></circle><circle stroke="url(#bb396157-db1a-4e4d-93e1-eb8b74aab18b)" stroke-miterlimit="10" cx="46.921" cy="41.058" r="2.5" fill="black"></circle><circle stroke="url(#bb396157-db1a-4e4d-93e1-eb8b74aab18b)" stroke-miterlimit="10" cx="40.373" cy="39.129" r="2.5" fill="black"></circle><circle stroke="url(#bb396157-db1a-4e4d-93e1-eb8b74aab18b)" stroke-miterlimit="10" cx="46.883" cy="34.472" r="2.5" fill="black"></circle></g></svg></g></svg></g><g></g></svg></g><defs><mask></mask></defs><mask><g id="SvgjsG2725"><svg viewBox="0 0 241.5264408203009 247.2" height="247.2" width="241.5264408203009"><g><svg viewBox="0 0 395.5199999999999 404.81093361013893" height="247.2" width="241.5264408203009"><g transform="matrix(1,0,0,1,0,223.15203179785874)"><svg viewBox="0 0 395.5199999999999 181.65890181228022" height="181.65890181228022" width="395.5199999999999"><g id="SvgjsG2724"><svg viewBox="0 0 395.5199999999999 181.65890181228022" height="181.65890181228022" width="395.5199999999999" id="SvgjsSvg2723"><g><svg viewBox="0 0 395.5199999999999 181.65890181228022" height="181.65890181228022" width="395.5199999999999"><g transform="matrix(1,0,0,1,0,0)"><svg width="395.5199999999999" viewBox="82.63 -37.45 184.85000000000002 80.5" height="181.65890181228022" data-palette-color="url(#ff2f2f7f-924a-452a-9bc3-f4846e0810c8)"><svg></svg><svg></svg><g class="wordmark-text-0" data-fill-palette-color="primary" id="SvgjsG2722"><path transform="translate(79.33,0)" d="M28.5-34.45l-3.4 24.6c-0.433 3.067-1.733 5.573-3.9 7.52-2.167 1.953-4.95 2.93-8.35 2.93v0c-3.067 0-5.423-0.843-7.07-2.53-1.653-1.68-2.48-3.853-2.48-6.52v0c0-0.767 0.033-1.35 0.1-1.75v0l3.45-24.25h4.5l-3.4 24.35c-0.067 0.4-0.1 0.95-0.1 1.65v0c0 3.467 1.767 5.2 5.3 5.2v0c2.167 0 3.883-0.633 5.15-1.9 1.267-1.267 2.05-3.017 2.35-5.25v0l3.35-24.05zM46.85-26.95c1.733 0 3.117 0.567 4.15 1.7 1.033 1.133 1.55 2.683 1.55 4.65v0c0 0.6-0.05 1.2-0.15 1.8v0l-2.65 18.8h-4.35l2.65-18.75c0.067-0.667 0.1-1.133 0.1-1.4v0c0-2.067-0.833-3.1-2.5-3.1v0c-2.333 0-4.8 2.4-7.4 7.2v0l-2.25 16.05h-4.35l3.7-26.35h3.75l-0.4 5c1.2-1.8 2.45-3.183 3.75-4.15 1.3-0.967 2.767-1.45 4.4-1.45zM67.35-37.45l-2.2 15.75c2.233-3.467 4.933-5.2 8.1-5.2v0c1.767 0 3.2 0.533 4.3 1.6 1.1 1.067 1.65 2.467 1.65 4.2v0c0 2.067-0.64 3.883-1.92 5.45-1.287 1.567-3.197 2.867-5.73 3.9v0l5.2 11.75h-4.75l-5.4-12.85c2.867-0.833 4.927-1.867 6.18-3.1 1.247-1.233 1.87-2.8 1.87-4.7v0c0-0.9-0.227-1.593-0.68-2.08-0.447-0.48-1.087-0.72-1.92-0.72v0c-1.3 0-2.64 0.657-4.02 1.97-1.387 1.32-2.63 3.23-3.73 5.73v0l-2.2 15.75h-4.35l5.2-36.95zM97.7-26.95c1.733 0 3.117 0.567 4.15 1.7 1.033 1.133 1.55 2.683 1.55 4.65v0c0 0.6-0.05 1.2-0.15 1.8v0l-2.65 18.8h-4.35l2.65-18.75c0.067-0.667 0.1-1.133 0.1-1.4v0c0-2.067-0.833-3.1-2.5-3.1v0c-2.333 0-4.8 2.4-7.4 7.2v0l-2.25 16.05h-4.35l3.7-26.35h3.75l-0.4 5c1.2-1.8 2.45-3.183 3.75-4.15 1.3-0.967 2.767-1.45 4.4-1.45zM117.55 0.6c-2.867 0-5.077-0.917-6.63-2.75-1.547-1.833-2.32-4.35-2.32-7.55v0c0-2.6 0.433-5.217 1.3-7.85 0.867-2.633 2.257-4.85 4.17-6.65 1.92-1.8 4.363-2.7 7.33-2.7v0c2.833 0 5.023 0.907 6.57 2.72 1.553 1.82 2.33 4.33 2.33 7.53v0c0 2.567-0.423 5.173-1.27 7.82-0.853 2.653-2.237 4.887-4.15 6.7-1.92 1.82-4.363 2.73-7.33 2.73zM117.7-2.95c1.967 0 3.55-0.767 4.75-2.3 1.2-1.533 2.057-3.383 2.57-5.55 0.52-2.167 0.78-4.267 0.78-6.3v0c0-4.167-1.533-6.25-4.6-6.25v0c-1.967 0-3.55 0.757-4.75 2.27-1.2 1.52-2.057 3.353-2.57 5.5-0.52 2.153-0.78 4.263-0.78 6.33v0c0 4.2 1.533 6.3 4.6 6.3zM161.65-26.35h4.2l-8.95 26.35h-5.75l-1-22.4-7.35 22.4h-5.6l-1.75-26.35h4.25l0.85 23.25 7.8-23.25h4.85l1.1 23.25zM182.45-26.95c1.733 0 3.117 0.567 4.15 1.7 1.033 1.133 1.55 2.683 1.55 4.65v0c0 0.6-0.05 1.2-0.15 1.8v0l-2.65 18.8h-4.35l2.65-18.75c0.067-0.667 0.1-1.133 0.1-1.4v0c0-2.067-0.833-3.1-2.5-3.1v0c-2.333 0-4.8 2.4-7.4 7.2v0l-2.25 16.05h-4.35l3.7-26.35h3.75l-0.4 5c1.2-1.8 2.45-3.183 3.75-4.15 1.3-0.967 2.767-1.45 4.4-1.45z" fill="black" fill-rule="nonzero" stroke="none" stroke-width="1" stroke-linecap="butt" stroke-linejoin="miter" stroke-miterlimit="10" stroke-dasharray="" stroke-dashoffset="0" font-family="none" font-weight="none" font-size="none" text-anchor="none" style="mix-blend-mode: normal" opacity="1"></path><path transform="translate(85.88,42.45)" d="M28.5-34.45l-3.4 24.6c-0.433 3.067-1.733 5.573-3.9 7.52-2.167 1.953-4.95 2.93-8.35 2.93v0c-3.067 0-5.423-0.843-7.07-2.53-1.653-1.68-2.48-3.853-2.48-6.52v0c0-0.767 0.033-1.35 0.1-1.75v0l3.45-24.25h4.5l-3.4 24.35c-0.067 0.4-0.1 0.95-0.1 1.65v0c0 3.467 1.767 5.2 5.3 5.2v0c2.167 0 3.883-0.633 5.15-1.9 1.267-1.267 2.05-3.017 2.35-5.25v0l3.35-24.05zM46.85-26.95c1.733 0 3.117 0.567 4.15 1.7 1.033 1.133 1.55 2.683 1.55 4.65v0c0 0.6-0.05 1.2-0.15 1.8v0l-2.65 18.8h-4.35l2.65-18.75c0.067-0.667 0.1-1.133 0.1-1.4v0c0-2.067-0.833-3.1-2.5-3.1v0c-2.333 0-4.8 2.4-7.4 7.2v0l-2.25 16.05h-4.35l3.7-26.35h3.75l-0.4 5c1.2-1.8 2.45-3.183 3.75-4.15 1.3-0.967 2.767-1.45 4.4-1.45zM61.45-26.35h4.35l-3.7 26.35h-4.35zM64.55-32.85c-0.833 0-1.5-0.25-2-0.75-0.5-0.5-0.75-1.15-0.75-1.95v0c0-0.967 0.317-1.76 0.95-2.38 0.633-0.613 1.4-0.92 2.3-0.92v0c0.833 0 1.5 0.25 2 0.75 0.5 0.5 0.75 1.15 0.75 1.95v0c0 0.967-0.317 1.76-0.95 2.38-0.633 0.613-1.4 0.92-2.3 0.92zM86.95-26.35h4.7l-11.65 26.35h-5.2l-4.35-26.35h4.7l2.8 22.4zM112.9-20.35c0 3.4-1.393 5.85-4.18 7.35-2.78 1.5-6.67 2.55-11.67 3.15v0 0.3c0 4.3 1.617 6.45 4.85 6.45v0c1.1 0 2.15-0.193 3.15-0.58 1-0.38 2.067-0.97 3.2-1.77v0l1.85 2.9c-2.767 2.1-5.65 3.15-8.65 3.15v0c-2.833 0-5.023-0.893-6.57-2.68-1.553-1.78-2.33-4.253-2.33-7.42v0c0-2.767 0.443-5.483 1.33-8.15 0.88-2.667 2.287-4.877 4.22-6.63 1.933-1.747 4.35-2.62 7.25-2.62v0c2.4 0 4.257 0.623 5.57 1.87 1.32 1.253 1.98 2.813 1.98 4.68zM105.15-23.4c-2.267 0-4.04 0.983-5.32 2.95-1.287 1.967-2.13 4.383-2.53 7.25v0c3.833-0.467 6.65-1.21 8.45-2.23 1.8-1.013 2.7-2.603 2.7-4.77v0c0-0.933-0.267-1.7-0.8-2.3-0.533-0.6-1.367-0.9-2.5-0.9zM130.4-26.9c0.733 0 1.517 0.117 2.35 0.35v0l-1.35 4.2c-0.733-0.167-1.383-0.25-1.95-0.25v0c-1.467 0-2.757 0.723-3.87 2.17-1.12 1.453-2.13 3.563-3.03 6.33v0l-1.95 14.1h-4.35l3.7-26.35h3.75l-0.35 5.1c0.9-1.867 1.933-3.277 3.1-4.23 1.167-0.947 2.483-1.42 3.95-1.42zM143.55-26.9c3.1 0 5.75 1.067 7.95 3.2v0l-2.15 2.55c-1.8-1.5-3.733-2.25-5.8-2.25v0c-1.433 0-2.573 0.333-3.42 1-0.853 0.667-1.28 1.6-1.28 2.8v0c0 0.933 0.35 1.693 1.05 2.28 0.7 0.58 1.917 1.187 3.65 1.82v0c2.167 0.767 3.767 1.733 4.8 2.9 1.033 1.167 1.55 2.7 1.55 4.6v0c0 1.767-0.45 3.3-1.35 4.6-0.9 1.3-2.123 2.29-3.67 2.97-1.553 0.687-3.247 1.03-5.08 1.03v0c-3.567 0-6.533-1.25-8.9-3.75v0l2.5-2.55c2 1.833 4.183 2.75 6.55 2.75v0c1.833 0 3.193-0.477 4.08-1.43 0.88-0.947 1.32-2.02 1.32-3.22v0c0-1.233-0.34-2.177-1.02-2.83-0.687-0.647-1.963-1.303-3.83-1.97v0c-2.167-0.8-3.723-1.733-4.67-2.8-0.953-1.067-1.43-2.45-1.43-4.15v0c0-1.3 0.367-2.527 1.1-3.68 0.733-1.147 1.793-2.08 3.18-2.8 1.38-0.713 3.003-1.07 4.87-1.07zM175.05-20.35c0 3.4-1.39 5.85-4.17 7.35-2.787 1.5-6.68 2.55-11.68 3.15v0 0.3c0 4.3 1.617 6.45 4.85 6.45v0c1.1 0 2.15-0.193 3.15-0.58 1-0.38 2.067-0.97 3.2-1.77v0l1.85 2.9c-2.767 2.1-5.65 3.15-8.65 3.15v0c-2.833 0-5.023-0.893-6.57-2.68-1.553-1.78-2.33-4.253-2.33-7.42v0c0-2.767 0.443-5.483 1.33-8.15 0.88-2.667 2.287-4.877 4.22-6.63 1.933-1.747 4.35-2.62 7.25-2.62v0c2.4 0 4.26 0.623 5.58 1.87 1.313 1.253 1.97 2.813 1.97 4.68zM167.3-23.4c-2.267 0-4.04 0.983-5.32 2.95-1.287 1.967-2.13 4.383-2.53 7.25v0c3.833-0.467 6.65-1.21 8.45-2.23 1.8-1.013 2.7-2.603 2.7-4.77v0c0-0.933-0.267-1.7-0.8-2.3-0.533-0.6-1.367-0.9-2.5-0.9z" fill="black" fill-rule="nonzero" stroke="none" stroke-width="1" stroke-linecap="butt" stroke-linejoin="miter" stroke-miterlimit="10" stroke-dasharray="" stroke-dashoffset="0" font-family="none" font-weight="none" font-size="none" text-anchor="none" style="mix-blend-mode: normal" opacity="1"></path></g></svg></g></svg></g></svg></g></svg></g><g transform="matrix(1,0,0,1,75.54432,0)"><svg viewBox="0 0 244.43135999999993 203.22476021514842" height="203.22476021514842" width="244.43135999999993"><g><svg xmlns="http://www.w3.org/2000/svg" xmlns:xlink="http://www.w3.org/1999/xlink" version="1.1" x="8" y="0" viewBox="0.4 0.2477790963781455 86.692 77.12584170829982" enable-background="new 0 0 87.142 77.878" xml:space="preserve" id="SvgjsSvg2721" width="228.43135999999993" height="203.22476021514842" class="icon-icon-0" data-fill-palette-color="accent"><g fill="black"><g fill="black"><g fill="black"><path d="M87.092 38.679L87.044 39.216C87.025 39.392 86.946 39.608 86.882 39.866 86.776 40.106 86.674 40.401 86.482 40.689 85.784 41.899 84.174 43.231 81.896 44.401 77.313 46.746 70.135 48.571 61.437 49.703 52.731 50.818 42.44 51.236 31.485 50.374 26.012 49.934 20.365 49.181 14.746 47.802 11.944 47.092 9.138 46.242 6.464 44.988 5.132 44.357 3.826 43.624 2.662 42.655 1.526 41.71 0.438 40.363 0.4 38.677L0.449 38.095C0.473 37.907 0.545 37.687 0.596 37.485 0.732 37.092 0.885 36.725 1.11 36.4 1.52 35.722 2.07 35.173 2.642 34.676 3.803 33.695 5.107 32.952 6.438 32.309 9.11 31.033 11.915 30.161 14.717 29.43 20.335 27.999 25.991 27.235 31.47 26.775 36.952 26.331 42.276 26.173 47.31 26.332 52.351 26.474 57.106 26.848 61.463 27.452 70.175 28.625 77.326 30.586 81.912 32.924 84.188 34.105 85.795 35.445 86.49 36.661 87.222 37.868 87.042 38.704 87.092 38.679M86.992 38.674C86.942 38.697 87.11 37.893 86.381 36.725 85.69 35.55 84.09 34.245 81.819 33.104 77.251 30.806 70.061 29.088 61.379 28.13 57.032 27.663 52.299 27.345 47.292 27.279 42.281 27.22 36.995 27.302 31.551 27.763 26.111 28.214 20.505 28.991 14.947 30.34 12.179 31.038 9.41 31.877 6.812 33.093 5.519 33.703 4.264 34.411 3.184 35.309 2.11 36.202 1.232 37.354 1.2 38.677 1.214 39.982 2.096 41.176 3.163 42.067 4.239 42.976 5.493 43.695 6.785 44.316 9.38 45.554 12.148 46.415 14.916 47.134 20.472 48.535 26.088 49.323 31.534 49.795 36.983 50.269 42.282 50.391 47.296 50.318 52.313 50.245 57.053 49.929 61.403 49.421 70.099 48.422 77.263 46.568 81.833 44.277 84.103 43.125 85.7 41.812 86.388 40.631 87.113 39.463 86.942 38.657 86.992 38.674" fill="black"></path><path d="M54.308 32.951L53.277 31.121C52.591 29.936 51.589 28.194 50.231 26.027A136 136 0 0 0 45.094 18.371C43.005 15.491 40.54 12.307 37.537 9.12 36.035 7.53 34.396 5.94 32.572 4.454 30.744 3.005 28.713 1.545 26.341 0.896 25.171 0.613 23.862 0.611 22.883 1.367 21.934 2.077 21.399 3.317 21.163 4.563 20.69 7.102 20.948 9.816 21.399 12.489 22.34 17.86 24.149 23.246 26.293 28.563 28.451 33.88 31.011 39.138 33.839 44.232 36.679 49.332 39.788 54.272 43.164 58.909 46.552 63.525 50.142 67.917 54.177 71.549 56.19 73.342 58.346 74.99 60.697 75.915 61.858 76.367 63.123 76.554 64.153 76.152L64.494 76.003 64.894 75.736C65.033 75.647 65.085 75.553 65.187 75.467 65.281 75.388 65.371 75.288 65.452 75.166 65.816 74.737 66.038 74.183 66.245 73.639 66.946 71.359 66.809 68.877 66.562 66.575A55 55 0 0 0 65.309 59.908C64.244 55.673 62.906 51.881 61.624 48.565A119 119 0 0 0 57.956 40.111C56.86 37.802 55.929 36.021 55.298 34.805zM54.396 32.903L55.41 34.745C56.057 35.953 57.012 37.724 58.14 40.022A158 158 0 0 1 61.978 48.423C63.347 51.717 64.787 55.488 65.973 59.734 66.556 61.858 67.086 64.101 67.399 66.473 67.679 68.836 67.89 71.363 67.15 73.933 66.924 74.561 66.677 75.207 66.227 75.766 66.05 76.049 65.706 76.34 65.452 76.559L65.056 76.832C64.831 76.964 64.703 76.998 64.521 77.084 63.119 77.619 61.615 77.337 60.349 76.851 57.776 75.832 55.583 74.126 53.517 72.292 49.4 68.577 45.767 64.154 42.403 59.462 39.041 54.764 35.951 49.764 33.144 44.625 30.33 39.477 27.795 34.186 25.658 28.822 23.536 23.46 21.749 18.032 20.831 12.587 20.394 9.873 20.138 7.12 20.65 4.458 20.916 3.151 21.463 1.8 22.605 0.953 23.728 0.105 25.238 0.135 26.458 0.455 28.955 1.176 30.974 2.686 32.809 4.173 34.633 5.697 36.259 7.315 37.748 8.93 40.714 12.174 43.16 15.377 45.245 18.268A136 136 0 0 1 50.352 25.957C51.702 28.132 52.696 29.88 53.377 31.07z" fill="black"></path><path d="M51.85 47.484L53.218 45.89C54.098 44.84 55.393 43.304 56.965 41.287A135 135 0 0 0 62.407 33.844C64.401 30.897 66.551 27.493 68.522 23.582 69.503 21.627 70.438 19.544 71.212 17.322 71.95 15.109 72.628 12.702 72.428 10.25 72.294 9.054 71.85 7.823 70.805 7.161 69.814 6.512 68.466 6.432 67.214 6.636 64.666 7.058 62.203 8.228 59.845 9.565 55.118 12.283 50.674 15.823 46.409 19.654 42.147 23.499 38.083 27.698 34.257 32.099 30.437 36.506 26.853 41.118 23.649 45.873 20.468 50.633 17.565 55.508 15.53 60.54 14.532 63.045 13.719 65.633 13.653 68.159 13.624 69.404 13.881 70.657 14.61 71.489L14.867 71.759 15.254 72.044C15.385 72.144 15.491 72.161 15.607 72.228 15.713 72.29 15.838 72.34 15.98 72.374 16.508 72.57 17.104 72.589 17.686 72.598 20.068 72.479 22.354 71.502 24.433 70.484A55 55 0 0 0 30.271 67.029C33.887 64.582 36.995 62.03 39.674 59.692A118 118 0 0 0 46.367 53.358C48.163 51.539 49.519 50.056 50.446 49.048zM51.925 47.55L50.54 49.132C49.625 50.153 48.287 51.655 46.513 53.5A159 159 0 0 1 39.928 59.976C37.299 62.388 34.247 65.029 30.661 67.593 28.863 68.866 26.936 70.13 24.814 71.234 22.688 72.304 20.385 73.366 17.718 73.547 17.051 73.549 16.359 73.538 15.68 73.305 15.354 73.235 14.962 73.012 14.67 72.847L14.278 72.567C14.077 72.4 14.001 72.292 13.858 72.15 12.876 71.015 12.628 69.505 12.652 68.149 12.731 65.382 13.586 62.739 14.604 60.171 16.69 55.032 19.606 50.108 22.868 45.344 26.136 40.579 29.778 35.97 33.653 31.573 37.526 27.174 41.637 22.981 45.948 19.142 50.263 15.317 54.754 11.783 59.558 9.061 61.959 7.723 64.459 6.543 67.136 6.114 68.455 5.918 69.912 5.97 71.098 6.755 72.278 7.521 72.766 8.95 72.882 10.206 73.057 12.799 72.327 15.212 71.556 17.445 70.747 19.679 69.781 21.761 68.771 23.712 66.735 27.607 64.56 31.001 62.555 33.947A136 136 0 0 1 57.072 41.373C55.489 43.384 54.185 44.916 53.3 45.962z" fill="black"></path></g></g><circle stroke="url(#bb396157-db1a-4e4d-93e1-eb8b74aab18b)" stroke-miterlimit="10" cx="30.609" cy="3.02" r="2.5" fill="black"></circle><circle stroke="url(#bb396157-db1a-4e4d-93e1-eb8b74aab18b)" stroke-miterlimit="10" cx="24.118" cy="71.052" r="2.5" fill="black"></circle><circle stroke="url(#bb396157-db1a-4e4d-93e1-eb8b74aab18b)" stroke-miterlimit="10" cx="83.864" cy="43.154" r="2.5" fill="black"></circle><circle stroke="url(#bb396157-db1a-4e4d-93e1-eb8b74aab18b)" stroke-miterlimit="10" cx="46.921" cy="41.058" r="2.5" fill="black"></circle><circle stroke="url(#bb396157-db1a-4e4d-93e1-eb8b74aab18b)" stroke-miterlimit="10" cx="40.373" cy="39.129" r="2.5" fill="black"></circle><circle stroke="url(#bb396157-db1a-4e4d-93e1-eb8b74aab18b)" stroke-miterlimit="10" cx="46.883" cy="34.472" r="2.5" fill="black"></circle></g></svg></g></svg></g><g></g></svg></g><defs><mask></mask></defs></svg><rect width="241.5264408203009" height="247.2" fill="black" stroke="none" visibility="hidden"></rect></g></mask></svg><rect width="241.5264408203009" height="247.2" fill="black" stroke="none" visibility="hidden"></rect></g></mask></svg><rect width="241.5264408203009" height="247.2" fill="black" stroke="none" visibility="hidden"></rect></g></mask><linearGradient x1="0" x2="1" y1="0.578" y2="0.595" id="bb396157-db1a-4e4d-93e1-eb8b74aab18b"><stop stop-color="#6ee2f5" offset="0"></stop><stop stop-color="#6454f0" offset="1"></stop></linearGradient><rect width="241.5264408203009" height="247.2" fill="url(#bb396157-db1a-4e4d-93e1-eb8b74aab18b)" mask="url(#6b0a1d76-2a18-441e-a098-66453414f77f)" data-fill-palette-color="accent"></rect></svg><rect width="241.5264408203009" height="247.2" fill="none" stroke="none" visibility="hidden"></rect></g></svg></g></svg>